<svg xmlns="http://www.w3.org/2000/svg" viewBox="0 0 40 40" class="design-iconfont">
  <g fill="#FFF" fill-rule="evenodd">
    <path d="M30.0835,14.8752 L26.9165,14.8752 C26.0885,14.8752 25.4165,14.2032 25.4165,13.3752 C25.4165,12.5472 26.0885,11.8752 26.9165,11.8752 L30.0835,11.8752 C30.9125,11.8752 31.5835,12.5472 31.5835,13.3752 C31.5835,14.2032 30.9125,14.8752 30.0835,14.8752 L30.0835,14.8752 Z M30.0835,19.6252 L26.9165,19.6252 C26.0875,19.6252 25.4165,18.9532 25.4165,18.1252 C25.4165,17.2972 26.0875,16.6252 26.9165,16.6252 L30.0835,16.6252 C30.9125,16.6252 31.5835,17.2972 31.5835,18.1252 C31.5835,18.9532 30.9125,19.6252 30.0835,19.6252 L30.0835,19.6252 Z M28.5005,24.4582 C27.6255,24.4582 26.9165,23.7492 26.9165,22.8752 C26.9165,22.0002 27.6255,21.2922 28.5005,21.2922 C29.3745,21.2922 30.0835,22.0002 30.0835,22.8752 C30.0835,23.7492 29.3745,24.4582 28.5005,24.4582 L28.5005,24.4582 Z M22.7915,22.8752 C22.7915,23.6572 22.1575,24.2922 21.3755,24.2922 L7.9165,24.2922 C7.1345,24.2922 6.5005,23.6572 6.5005,22.8752 L6.5005,13.3752 C6.5005,12.5932 7.1345,11.9582 7.9165,11.9582 L21.3755,11.9582 C22.1575,11.9582 22.7915,12.5932 22.7915,13.3752 L22.7915,22.8752 Z M33.2505,4.7502 L4.7505,4.7502 C3.0495,4.7502 1.6665,6.1332 1.6665,7.8332 L1.6665,28.4162 C1.6665,30.1162 3.0495,31.5002 4.7505,31.5002 L8.0005,31.5002 L8.0005,31.7502 C8.0005,32.5782 8.6715,33.2502 9.5005,33.2502 C10.3285,33.2502 11.0005,32.5782 11.0005,31.7502 L11.0005,31.5002 L27.0005,31.5002 L27.0005,31.7502 C27.0005,32.5782 27.6715,33.2502 28.5005,33.2502 C29.3285,33.2502 30.0005,32.5782 30.0005,31.7502 L30.0005,31.5002 L33.2505,31.5002 C34.9505,31.5002 36.3335,30.1162 36.3335,28.4162 L36.3335,7.8332 C36.3335,6.1332 34.9505,4.7502 33.2505,4.7502 L33.2505,4.7502 Z" transform="translate(1 1)"/>
    <path d="M12.6973,16.8644 L13.2183,15.8804 C13.6053,15.1484 13.3253,14.2404 12.5933,13.8524 C11.8623,13.4664 10.9533,13.7454 10.5663,14.4774 L9.9283,15.6824 C9.5703,16.3614 9.5113,17.1654 9.7653,17.8874 C9.9913,18.5284 10.4483,19.0624 11.0383,19.3874 L10.5193,20.3684 C10.1313,21.0994 10.4093,22.0084 11.1413,22.3954 C11.3653,22.5144 11.6063,22.5704 11.8433,22.5704 C12.3803,22.5704 12.9003,22.2814 13.1693,21.7724 L13.8063,20.5724 C14.1653,19.8934 14.2253,19.0894 13.9703,18.3654 C13.7453,17.7244 13.2883,17.1894 12.6973,16.8644" transform="translate(1 1)"/>
    <path d="M18.2529,16.8644 L18.7739,15.8804 C19.1609,15.1484 18.8809,14.2404 18.1489,13.8524 C17.4169,13.4664 16.5089,13.7454 16.1219,14.4774 L15.4839,15.6824 C15.1259,16.3614 15.0669,17.1654 15.3209,17.8874 C15.5469,18.5284 16.0039,19.0624 16.5939,19.3874 L16.0749,20.3684 C15.6869,21.0994 15.9649,22.0084 16.6969,22.3954 C16.9209,22.5144 17.1619,22.5704 17.3989,22.5704 C17.9359,22.5704 18.4559,22.2814 18.7249,21.7724 L19.3619,20.5724 C19.7209,19.8934 19.7809,19.0894 19.5259,18.3654 C19.3009,17.7244 18.8439,17.1894 18.2529,16.8644" transform="translate(1 1)"/>
  </g>
</svg>
