<svg xmlns="http://www.w3.org/2000/svg" viewBox="0 0 40 40" class="design-iconfont">
  <g fill="#FFF" fill-rule="evenodd">
    <path d="M30.0801,14.8764 L26.9201,14.8764 C26.0901,14.8764 25.4201,14.2064 25.4201,13.3764 C25.4201,12.5464 26.0901,11.8764 26.9201,11.8764 L30.0801,11.8764 C30.9101,11.8764 31.5801,12.5464 31.5801,13.3764 C31.5801,14.2064 30.9101,14.8764 30.0801,14.8764 L30.0801,14.8764 Z M30.0801,19.6264 L26.9201,19.6264 C26.0901,19.6264 25.4201,18.9564 25.4201,18.1264 C25.4201,17.2964 26.0901,16.6264 26.9201,16.6264 L30.0801,16.6264 C30.9101,16.6264 31.5801,17.2964 31.5801,18.1264 C31.5801,18.9564 30.9101,19.6264 30.0801,19.6264 L30.0801,19.6264 Z M28.5001,24.4564 C27.6301,24.4564 26.9201,23.7464 26.9201,22.8764 C26.9201,21.9964 27.6301,21.2964 28.5001,21.2964 C29.3701,21.2964 30.0801,21.9964 30.0801,22.8764 C30.0801,23.7464 29.3701,24.4564 28.5001,24.4564 L28.5001,24.4564 Z M22.7901,22.8764 C22.7901,23.6564 22.1601,24.2964 21.3801,24.2964 L7.9201,24.2964 C7.1301,24.2964 6.5001,23.6564 6.5001,22.8764 L6.5001,13.3764 C6.5001,12.5964 7.1301,11.9564 7.9201,11.9564 L21.3801,11.9564 C22.1601,11.9564 22.7901,12.5964 22.7901,13.3764 L22.7901,22.8764 Z M33.2501,4.7464 L4.7501,4.7464 C3.0501,4.7464 1.6701,6.1364 1.6701,7.8364 L1.6701,28.4164 C1.6701,30.1164 3.0501,31.4964 4.7501,31.4964 L8.0001,31.4964 L8.0001,31.7464 C8.0001,32.5764 8.6701,33.2464 9.5001,33.2464 C10.3301,33.2464 11.0001,32.5764 11.0001,31.7464 L11.0001,31.4964 L27.0001,31.4964 L27.0001,31.7464 C27.0001,32.5764 27.6701,33.2464 28.5001,33.2464 C29.3301,33.2464 30.0001,32.5764 30.0001,31.7464 L30.0001,31.4964 L33.2501,31.4964 C34.9501,31.4964 36.3301,30.1164 36.3301,28.4164 L36.3301,7.8364 C36.3301,6.1364 34.9501,4.7464 33.2501,4.7464 L33.2501,4.7464 Z" transform="translate(1 1)"/>
    <path d="M14.6455,13.8537 C13.8175,13.8537 13.1455,14.5257 13.1455,15.3537 L13.1455,20.8957 C13.1455,21.7237 13.8175,22.3957 14.6455,22.3957 C15.4735,22.3957 16.1455,21.7237 16.1455,20.8957 L16.1455,15.3537 C16.1455,14.5257 15.4735,13.8537 14.6455,13.8537" transform="translate(1 1)"/>
    <path d="M18.9795,15.0412 C18.1515,15.0412 17.4795,15.7132 17.4795,16.5412 L17.4795,19.7082 C17.4795,20.5362 18.1515,21.2082 18.9795,21.2082 C19.8075,21.2082 20.4795,20.5362 20.4795,19.7082 L20.4795,16.5412 C20.4795,15.7132 19.8075,15.0412 18.9795,15.0412" transform="translate(1 1)"/>
    <path d="M10.3125,15.0412 C9.4845,15.0412 8.8125,15.7132 8.8125,16.5412 L8.8125,19.7082 C8.8125,20.5362 9.4845,21.2082 10.3125,21.2082 C11.1405,21.2082 11.8125,20.5362 11.8125,19.7082 L11.8125,16.5412 C11.8125,15.7132 11.1405,15.0412 10.3125,15.0412" transform="translate(1 1)"/>
  </g>
</svg>
