<svg xmlns="http://www.w3.org/2000/svg" viewBox="0 0 40 40" class="design-iconfont">
  <g fill="#FFF" fill-rule="evenodd">
    <path d="M30.0835,14.8752 L26.9165,14.8752 C26.0885,14.8752 25.4165,14.2032 25.4165,13.3752 C25.4165,12.5472 26.0885,11.8752 26.9165,11.8752 L30.0835,11.8752 C30.9125,11.8752 31.5835,12.5472 31.5835,13.3752 C31.5835,14.2032 30.9125,14.8752 30.0835,14.8752 L30.0835,14.8752 Z M30.0835,19.6252 L26.9165,19.6252 C26.0875,19.6252 25.4165,18.9532 25.4165,18.1252 C25.4165,17.2972 26.0875,16.6252 26.9165,16.6252 L30.0835,16.6252 C30.9125,16.6252 31.5835,17.2972 31.5835,18.1252 C31.5835,18.9532 30.9125,19.6252 30.0835,19.6252 L30.0835,19.6252 Z M28.5005,24.4582 C27.6255,24.4582 26.9165,23.7492 26.9165,22.8752 C26.9165,22.0002 27.6255,21.2922 28.5005,21.2922 C29.3745,21.2922 30.0835,22.0002 30.0835,22.8752 C30.0835,23.7492 29.3745,24.4582 28.5005,24.4582 L28.5005,24.4582 Z M22.7915,22.8752 C22.7915,23.6572 22.1575,24.2922 21.3755,24.2922 L7.9165,24.2922 C7.1345,24.2922 6.5005,23.6572 6.5005,22.8752 L6.5005,13.3752 C6.5005,12.5932 7.1345,11.9582 7.9165,11.9582 L21.3755,11.9582 C22.1575,11.9582 22.7915,12.5932 22.7915,13.3752 L22.7915,22.8752 Z M33.2505,4.7502 L4.7505,4.7502 C3.0495,4.7502 1.6665,6.1332 1.6665,7.8332 L1.6665,28.4162 C1.6665,30.1162 3.0495,31.5002 4.7505,31.5002 L8.0005,31.5002 L8.0005,31.7502 C8.0005,32.5782 8.6715,33.2502 9.5005,33.2502 C10.3285,33.2502 11.0005,32.5782 11.0005,31.7502 L11.0005,31.5002 L27.0005,31.5002 L27.0005,31.7502 C27.0005,32.5782 27.6715,33.2502 28.5005,33.2502 C29.3285,33.2502 30.0005,32.5782 30.0005,31.7502 L30.0005,31.5002 L33.2505,31.5002 C34.9505,31.5002 36.3335,30.1162 36.3335,28.4162 L36.3335,7.8332 C36.3335,6.1332 34.9505,4.7502 33.2505,4.7502 L33.2505,4.7502 Z" transform="translate(1 1)"/>
    <path d="M13.5513,15.7746 C13.1603,15.3836 12.5283,15.3836 12.1373,15.7746 L11.4683,16.4426 L10.8003,15.7746 C10.4093,15.3836 9.7773,15.3836 9.3863,15.7746 C8.9953,16.1656 8.9953,16.7976 9.3863,17.1886 L10.0543,17.8576 L9.3863,18.5256 C8.9953,18.9166 8.9953,19.5486 9.3863,19.9396 C9.5813,20.1346 9.8373,20.2326 10.0933,20.2326 C10.3493,20.2326 10.6053,20.1346 10.8003,19.9396 L11.4683,19.2716 L12.1373,19.9396 C12.3323,20.1346 12.5883,20.2326 12.8443,20.2326 C13.1003,20.2326 13.3563,20.1346 13.5513,19.9396 C13.9423,19.5486 13.9423,18.9166 13.5513,18.5256 L12.8833,17.8576 L13.5513,17.1886 C13.9423,16.7976 13.9423,16.1656 13.5513,15.7746" transform="translate(1 1)"/>
    <path d="M20.4253,19.5002 L19.0663,19.5002 L20.4863,18.2112 C21.7113,16.9852 21.7203,15.1462 20.5053,13.9312 C19.2803,12.7062 17.2883,12.7062 16.0643,13.9312 C15.5823,14.4122 15.2763,15.0212 15.1773,15.6912 C15.0973,16.2382 15.4753,16.7462 16.0213,16.8262 C16.5663,16.9122 17.0763,16.5292 17.1563,15.9822 C17.1923,15.7402 17.3033,15.5202 17.4783,15.3452 C17.9083,14.9132 18.6603,14.9132 19.0913,15.3452 C19.3053,15.5602 19.4183,15.8082 19.4153,16.0622 C19.4133,16.3202 19.2943,16.5742 19.0903,16.7792 L18.1233,17.7032 L15.5513,19.7122 C15.2153,19.9752 15.0823,20.4222 15.2213,20.8252 C15.3603,21.2292 15.7403,21.5002 16.1673,21.5002 L20.4253,21.5002 C20.9773,21.5002 21.4253,21.0532 21.4253,20.5002 C21.4253,19.9472 20.9773,19.5002 20.4253,19.5002" transform="translate(1 1)"/>
  </g>
</svg>
