<svg xmlns="http://www.w3.org/2000/svg" viewBox="0 0 40 40" class="design-iconfont">
  <path d="M30.08,14.8764 L26.92,14.8764 C26.09,14.8764 25.42,14.2064 25.42,13.3764 C25.42,12.5464 26.09,11.8764 26.92,11.8764 L30.08,11.8764 C30.91,11.8764 31.58,12.5464 31.58,13.3764 C31.58,14.2064 30.91,14.8764 30.08,14.8764 L30.08,14.8764 Z M30.08,19.6264 L26.92,19.6264 C26.09,19.6264 25.42,18.9564 25.42,18.1264 C25.42,17.2964 26.09,16.6264 26.92,16.6264 L30.08,16.6264 C30.91,16.6264 31.58,17.2964 31.58,18.1264 C31.58,18.9564 30.91,19.6264 30.08,19.6264 L30.08,19.6264 Z M28.5,24.4564 C27.63,24.4564 26.92,23.7464 26.92,22.8764 C26.92,21.9964 27.63,21.2964 28.5,21.2964 C29.37,21.2964 30.08,21.9964 30.08,22.8764 C30.08,23.7464 29.37,24.4564 28.5,24.4564 L28.5,24.4564 Z M22.79,22.8764 C22.79,23.6564 22.16,24.2964 21.38,24.2964 L7.92,24.2964 C7.13,24.2964 6.5,23.6564 6.5,22.8764 L6.5,13.3764 C6.5,12.5964 7.13,11.9564 7.92,11.9564 L21.38,11.9564 C22.16,11.9564 22.79,12.5964 22.79,13.3764 L22.79,22.8764 Z M33.25,4.7464 L4.75,4.7464 C3.05,4.7464 1.67,6.1364 1.67,7.8364 L1.67,28.4164 C1.67,30.1164 3.05,31.4964 4.75,31.4964 L8,31.4964 L8,31.7464 C8,32.5764 8.67,33.2464 9.5,33.2464 C10.33,33.2464 11,32.5764 11,31.7464 L11,31.4964 L27,31.4964 L27,31.7464 C27,32.5764 27.67,33.2464 28.5,33.2464 C29.33,33.2464 30,32.5764 30,31.7464 L30,31.4964 L33.25,31.4964 C34.95,31.4964 36.33,30.1164 36.33,28.4164 L36.33,7.8364 C36.33,6.1364 34.95,4.7464 33.25,4.7464 L33.25,4.7464 Z" transform="translate(1 1)" fill="#FFF" fill-rule="evenodd"/>
</svg>
