<svg xmlns="http://www.w3.org/2000/svg" viewBox="0 0 40 40" class="design-iconfont">
  <g fill="#FFF" fill-rule="evenodd">
    <path d="M13.6665,33.5334 C13.0535,33.5334 12.4785,33.1554 12.2565,32.5464 L9.5495,25.1064 C9.2665,24.3284 9.6675,23.4684 10.4455,23.1844 C11.2255,22.9014 12.0845,23.3024 12.3685,24.0814 L15.0765,31.5204 C15.3595,32.2994 14.9585,33.1594 14.1795,33.4424 C14.0105,33.5044 13.8365,33.5334 13.6665,33.5334" transform="translate(1 1)"/>
    <path d="M19,21.7834 C18.171,21.7834 17.5,22.4554 17.5,23.2834 L17.5,35.2004 C17.5,36.0284 18.171,36.7004 19,36.7004 C19.829,36.7004 20.5,36.0284 20.5,35.2004 L20.5,23.2834 C20.5,22.4554 19.829,21.7834 19,21.7834" transform="translate(1 1)"/>
    <path d="M30.043,10.382 C29.016,5.192 24.404,1.3 19,1.3 C13.596,1.3 8.985,5.192 7.958,10.382 C3.796,10.847 0.55,14.382 0.55,18.66 C0.55,21.984 2.518,24.985 5.563,26.306 C6.05,26.518 6.611,26.457 7.041,26.144 C7.47,25.833 7.703,25.318 7.654,24.79 C7.647,24.726 7.65,24.66 7.65,24.59 C7.65,22.765 9.135,21.28 10.96,21.28 C11.581,21.28 12.183,21.453 12.7,21.779 C13.064,22.009 13.509,22.072 13.92,21.949 C14.333,21.829 14.674,21.537 14.857,21.149 C15.609,19.552 17.235,18.52 19,18.52 C20.765,18.52 22.391,19.552 23.143,21.149 C23.326,21.537 23.667,21.829 24.079,21.949 C24.492,22.072 24.938,22.009 25.299,21.779 C25.817,21.453 26.42,21.28 27.04,21.28 C28.865,21.28 30.35,22.765 30.35,24.59 C30.35,24.663 30.352,24.73 30.346,24.796 C30.299,25.324 30.533,25.838 30.964,26.148 C31.224,26.334 31.53,26.43 31.84,26.43 C32.044,26.43 32.249,26.388 32.441,26.304 C35.484,24.972 37.45,21.972 37.45,18.66 C37.45,14.382 34.204,10.847 30.043,10.382" transform="translate(1 1)"/>
    <path d="M27.5537,23.1847 C26.7807,22.9017 25.9147,23.3017 25.6317,24.0807 L22.9237,31.5207 C22.6397,32.2987 23.0407,33.1597 23.8207,33.4427 C23.9897,33.5037 24.1617,33.5337 24.3327,33.5337 C24.9457,33.5337 25.5207,33.1557 25.7417,32.5457 L28.4497,25.1067 C28.7347,24.3287 28.3327,23.4677 27.5537,23.1847" transform="translate(1 1)"/>
  </g>
</svg>
