<svg xmlns="http://www.w3.org/2000/svg" viewBox="0 0 40 40" class="design-iconfont">
  <g fill="#FFF" fill-rule="evenodd">
    <path d="M26,18.6259 C27.12,19.0159 28.12,19.4759 29,19.9659 L29,21.1259 C29,21.9559 28.33,22.6259 27.5,22.6259 C26.67,22.6259 26,21.9559 26,21.1259 L26,18.6259 Z M17.5,17.5659 C17.99,17.5459 18.49,17.5259 19,17.5259 C19.51,17.5259 20.01,17.5459 20.5,17.5659 L20.5,23.8259 C20.5,24.6559 19.83,25.3259 19,25.3259 C18.17,25.3259 17.5,24.6559 17.5,23.8259 L17.5,17.5659 Z M9,19.9659 C9.88,19.4759 10.88,19.0159 12,18.6259 L12,21.1259 C12,21.9559 11.33,22.6259 10.5,22.6259 C9.67,22.6259 9,21.9559 9,21.1259 L9,19.9659 Z M36.39,22.5559 C34.64,20.1359 29.45,14.5259 19,14.5259 C8.55,14.5259 3.36,20.1359 1.61,22.5559 C0.87,23.5759 0.5,24.8259 0.5,26.2959 C0.5,30.8359 4.19,34.5259 8.73,34.5259 L29.27,34.5259 C33.81,34.5259 37.5,30.8359 37.5,26.2959 C37.5,24.8259 37.13,23.5759 36.39,22.5559 L36.39,22.5559 Z" transform="translate(1 1)"/>
    <path d="M8.7998,11.5748 C9.6278,11.5748 10.2998,10.9028 10.2998,10.0748 L10.2998,6.6748 C10.2998,5.8458 9.6278,5.1748 8.7998,5.1748 C7.9718,5.1748 7.2998,5.8458 7.2998,6.6748 L7.2998,10.0748 C7.2998,10.9028 7.9718,11.5748 8.7998,11.5748" transform="translate(1 1)"/>
    <path d="M29.2002,11.5748 C30.0282,11.5748 30.7002,10.9028 30.7002,10.0748 L30.7002,6.6748 C30.7002,5.8458 30.0282,5.1748 29.2002,5.1748 C28.3722,5.1748 27.7002,5.8458 27.7002,6.6748 L27.7002,10.0748 C27.7002,10.9028 28.3722,11.5748 29.2002,11.5748" transform="translate(1 1)"/>
    <path d="M19,11.5748 C19.828,11.5748 20.5,10.9028 20.5,10.0748 L20.5,4.9738 C20.5,4.1458 19.828,3.4738 19,3.4738 C18.172,3.4738 17.5,4.1458 17.5,4.9738 L17.5,10.0748 C17.5,10.9028 18.172,11.5748 19,11.5748" transform="translate(1 1)"/>
  </g>
</svg>
