<svg xmlns="http://www.w3.org/2000/svg" viewBox="0 0 40 40" class="design-iconfont">
  <g fill="#FFF" fill-rule="evenodd">
    <path d="M27.1729,22.5148 L24.7979,22.5148 C24.2449,22.5148 23.7979,22.0678 23.7979,21.5148 C23.7979,20.9618 24.2449,20.5148 24.7979,20.5148 L27.1729,20.5148 C27.7259,20.5148 28.1729,20.9618 28.1729,21.5148 C28.1729,22.0678 27.7259,22.5148 27.1729,22.5148 L27.1729,22.5148 Z M27.1729,26.0778 L24.7979,26.0778 C24.2449,26.0778 23.7979,25.6298 23.7979,25.0778 C23.7979,24.5248 24.2449,24.0768 24.7979,24.0768 L27.1729,24.0768 C27.7259,24.0768 28.1729,24.5248 28.1729,25.0778 C28.1729,25.6298 27.7259,26.0778 27.1729,26.0778 L27.1729,26.0778 Z M25.9859,29.8278 C25.3299,29.8278 24.7979,29.2958 24.7979,28.6398 C24.7979,27.9838 25.3299,27.4528 25.9859,27.4528 C26.6409,27.4528 27.1729,27.9838 27.1729,28.6398 C27.1729,29.2958 26.6409,29.8278 25.9859,29.8278 L25.9859,29.8278 Z M22.0589,28.6398 C22.0589,29.4218 21.4239,30.0568 20.6419,30.0568 L10.5479,30.0568 C9.7659,30.0568 9.1309,29.4218 9.1309,28.6398 L9.1309,21.5148 C9.1309,20.7328 9.7659,20.0978 10.5479,20.0978 L20.6419,20.0978 C21.4239,20.0978 22.0589,20.7328 22.0589,21.5148 L22.0589,28.6398 Z M29.5479,14.6708 L8.1729,14.6708 C6.6909,14.6708 5.4859,15.8768 5.4859,17.3588 L5.4859,32.7958 C5.4859,34.2778 6.6909,35.4838 8.1729,35.4838 L10.2359,35.4838 L10.2359,35.5458 C10.2359,36.3738 10.9069,37.0458 11.7349,37.0458 C12.5639,37.0458 13.2349,36.3738 13.2349,35.5458 L13.2349,35.4838 L24.4849,35.4838 L24.4849,35.5458 C24.4849,36.3738 25.1569,37.0458 25.9859,37.0458 C26.8139,37.0458 27.4849,36.3738 27.4849,35.5458 L27.4849,35.4838 L29.5479,35.4838 C31.0289,35.4838 32.2349,34.2778 32.2349,32.7958 L32.2349,17.3588 C32.2349,15.8768 31.0289,14.6708 29.5479,14.6708 L29.5479,14.6708 Z" transform="translate(1 1)"/>
    <path d="M6.6089,13.9035 C6.7369,13.9035 6.8649,13.8795 6.9869,13.8295 C7.3269,13.6905 7.5629,13.3775 7.6029,13.0115 L7.8679,10.5865 C7.9319,10.5665 7.9959,10.5445 8.0579,10.5185 C9.2589,10.0275 9.8369,8.6505 9.3459,7.4495 C9.1089,6.8675 8.6579,6.4125 8.0779,6.1695 C7.6709,5.9975 7.2319,5.9465 6.8059,6.0115 C5.9069,5.3305 4.7009,5.1575 3.6229,5.5955 C2.2319,6.1655 1.4469,7.5955 1.6339,9.0205 C1.4149,9.2365 1.2379,9.4965 1.1149,9.7885 C0.8719,10.3685 0.8689,11.0075 1.1069,11.5905 C1.3439,12.1725 1.7949,12.6275 2.3749,12.8705 C2.9549,13.1145 3.5949,13.1165 4.1759,12.8795 C4.3529,12.8065 4.5179,12.7155 4.6679,12.6065 L5.9749,13.6765 C6.1569,13.8265 6.3819,13.9035 6.6089,13.9035" transform="translate(1 1)"/>
    <path d="M36.6094,8.5051 C35.9544,7.5601 34.7794,7.1831 33.7264,7.4971 C33.5434,7.3961 33.3424,7.3241 33.1304,7.2851 C32.6144,7.1931 32.0934,7.3041 31.6634,7.6011 C31.2314,7.8991 30.9414,8.3471 30.8464,8.8621 C30.7534,9.3781 30.8644,9.9001 31.1634,10.3311 C31.2094,10.3991 31.2584,10.4621 31.3124,10.5231 L30.8644,11.4061 C30.6984,11.7341 30.7244,12.1251 30.9324,12.4271 C31.1414,12.7291 31.4934,12.8921 31.8634,12.8531 L33.4094,12.6861 C33.7074,13.1061 34.1484,13.3871 34.6564,13.4801 C34.7754,13.5011 34.8944,13.5121 35.0124,13.5121 C35.4084,13.5121 35.7934,13.3931 36.1234,13.1641 C36.8494,12.6631 37.1324,11.7561 36.8794,10.9541 C37.2034,10.1581 37.1154,9.2381 36.6094,8.5051" transform="translate(1 1)"/>
    <path d="M17.8643,8.4162 C18.1423,8.5312 18.4313,8.6002 18.7223,8.6202 L18.9743,11.0342 C19.0123,11.3992 19.2473,11.7142 19.5863,11.8542 C19.7093,11.9052 19.8393,11.9312 19.9683,11.9312 C20.1943,11.9312 20.4173,11.8542 20.5983,11.7082 L23.2133,9.5892 C23.3343,9.6632 23.4603,9.7282 23.5923,9.7832 C24.9923,10.3642 26.6093,9.6972 27.1923,8.2932 C27.4733,7.6132 27.4743,6.8642 27.1933,6.1852 C26.9783,5.6662 26.6203,5.2342 26.1613,4.9352 C26.0093,3.5342 25.1093,2.3062 23.7733,1.7522 C22.0513,1.0372 20.1053,1.6532 19.0783,3.1182 C18.6663,3.0972 18.2553,3.1632 17.8653,3.3242 C17.1853,3.6052 16.6553,4.1362 16.3733,4.8152 C15.7923,6.2182 16.4613,7.8332 17.8643,8.4162" transform="translate(1 1)"/>
  </g>
</svg>
