<svg xmlns="http://www.w3.org/2000/svg" viewBox="0 0 40 40" class="design-iconfont">
  <g fill="#FFF" fill-rule="evenodd">
    <path d="M20.5,3.1664 L20.5,8.7064 C20.5,9.5364 19.83,10.2064 19,10.2064 C18.17,10.2064 17.5,9.5364 17.5,8.7064 L17.5,3.1664 C17.5,2.3364 18.17,1.6664 19,1.6664 C19.83,1.6664 20.5,2.3364 20.5,3.1664" transform="translate(1 1)"/>
    <path d="M26.83,5.5364 L26.83,8.7064 C26.83,9.5364 26.16,10.2064 25.33,10.2064 C24.5,10.2064 23.83,9.5364 23.83,8.7064 L23.83,5.5364 C23.83,4.7164 24.5,4.0364 25.33,4.0364 C26.16,4.0364 26.83,4.7164 26.83,5.5364" transform="translate(1 1)"/>
    <path d="M14.17,5.5364 L14.17,8.7064 C14.17,9.5364 13.5,10.2064 12.67,10.2064 C11.84,10.2064 11.17,9.5364 11.17,8.7064 L11.17,5.5364 C11.17,4.7164 11.84,4.0364 12.67,4.0364 C13.5,4.0364 14.17,4.7164 14.17,5.5364" transform="translate(1 1)"/>
    <path d="M10.29,29.3764 L11.24,26.1264 C13.63,27.1164 16.29,27.6264 19,27.6264 C21.71,27.6264 24.37,27.1164 26.76,26.1264 L27.71,29.3764 L10.29,29.3764 Z M15.83,18.3764 L22.17,18.3764 C22.95,18.3764 23.58,19.0064 23.58,19.7864 C23.58,20.5764 22.95,21.2064 22.17,21.2064 L15.83,21.2064 C15.05,21.2064 14.42,20.5764 14.42,19.7864 C14.42,19.0064 15.05,18.3764 15.83,18.3764 L15.83,18.3764 Z M36.33,13.4564 C36.33,12.6264 35.66,11.9564 34.83,11.9564 L3.17,11.9564 C2.34,11.9564 1.67,12.6264 1.67,13.4564 C1.67,17.9364 4.21,22.0864 8.52,24.7464 L5.69,34.4064 C5.45,35.2064 5.91,36.0364 6.7,36.2764 C6.84,36.3164 6.99,36.3364 7.13,36.3364 C7.77,36.3364 8.37,35.9064 8.56,35.2564 L9.41,32.3764 L28.59,32.3764 L29.44,35.2564 C29.63,35.9064 30.23,36.3364 30.87,36.3364 C31.01,36.3364 31.16,36.3164 31.3,36.2764 C32.09,36.0364 32.55,35.2064 32.31,34.4064 L29.48,24.7464 C33.79,22.0864 36.33,17.9364 36.33,13.4564 L36.33,13.4564 Z" transform="translate(1 1)"/>
  </g>
</svg>
