<svg xmlns="http://www.w3.org/2000/svg" viewBox="0 0 30 30" class="design-iconfont">
  <path d="M16.3502785,17.2660843 C16.3502785,18.0214204 15.7454692,18.633346 15.0002578,18.633346 C14.2544464,18.633346 13.6502371,18.0214204 13.6502371,17.2660843 L13.6502371,10.8855298 C13.6502371,10.1301937 14.2544464,9.51826814 15.0002578,9.51826814 C15.7454692,9.51826814 16.3502785,10.1301937 16.3502785,10.8855298 L16.3502785,17.2660843 Z M15.0002578,23.2285606 C14.2544464,23.2285606 13.6502371,22.6160273 13.6502371,21.8612989 C13.6502371,21.1059628 14.2544464,20.4940372 15.0002578,20.4940372 C15.7454692,20.4940372 16.3502785,21.1059628 16.3502785,21.8612989 C16.3502785,22.6160273 15.7454692,23.2285606 15.0002578,23.2285606 L15.0002578,23.2285606 Z M29.5486805,23.3014812 L17.6036977,3.47983289 C16.4144794,1.50672237 13.5860361,1.50672237 12.3968179,3.47983289 L0.451235056,23.3014812 C-0.788983931,25.3602735 0.673838464,28 3.05467491,28 L26.9452407,28 C29.3266771,28 30.7888995,25.3602735 29.5486805,23.3014812 L29.5486805,23.3014812 Z" fill="#FF3939" fill-rule="evenodd"/>
</svg>
