<?xml version="1.0" encoding="UTF-8"?>
<svg xmlns="http://www.w3.org/2000/svg" xmlns:xlink="http://www.w3.org/1999/xlink" width="46px" height="46px" viewBox="0 0 46 46" version="1.1">
  <title>编组 2</title>
  <g id="new-菜谱列表+运行" stroke="none" stroke-width="1" fill="none" fill-rule="evenodd">
    <g id="菜谱详情-未联网" transform="translate(-489.000000, -186.000000)">
      <g id="弹窗" transform="translate(316.000000, 166.000000)">
        <g id="编组-2" transform="translate(173.000000, 20.000000)">
          <rect id="矩形" x="0" y="0" width="46" height="46"></rect>
          <path d="M24.7840543,15.3436518 L17.212799,7.7722924 C14.4261373,4.98559243 10.0001821,4.89215279 7.32757016,7.56480142 C4.65495824,10.2374501 4.74702251,14.6634661 7.53505828,17.4515402 L15.1063136,25.0215255 M30.6467618,21.2225169 L38.2180171,28.7938763 C41.0046788,31.5805762 41.3660654,35.8733034 38.4255052,38.6792409 C35.4849451,41.4851785 31.3269381,41.259824 28.5389023,38.47175 L20.9690211,30.9003906 M20.2539428,20.2543173 L16.4683151,16.4686376 M29.0864786,29.0866996 L25.3008509,25.3010199" id="形状结合" stroke="#FFFFFF" stroke-width="4" stroke-linecap="round" stroke-linejoin="round"></path>
          <path d="M8.35346838,29.139603 L3,29.139603 M16.8606188,43 L16.8606188,37.6464581 M12.6069749,33.3931679 L8.82134723,37.1788476 M29.1393812,3 L29.1393812,8.35354195 M37.6465316,16.8605345 L43,16.8605345 M33.3928877,12.6069695 L37.1785154,8.82128981" id="形状结合" stroke="#F7D58F" stroke-width="4" stroke-linecap="round" stroke-linejoin="round"></path>
        </g>
      </g>
    </g>
  </g>
</svg>
