<svg width="18" height="22" viewBox="0 0 18 22" fill="none" xmlns="http://www.w3.org/2000/svg">
<path d="M9 20.9168C13.2891 20.9168 16.8125 17.5179 16.8125 13.1554C16.8125 12.0845 16.7578 10.9366 16.1641 9.15225C16.0525 8.817 15.9577 8.53661 15.8731 8.29499C15.6111 7.54629 14.1109 8.23014 13.5656 8.80623V8.80623C13.0967 9.30163 12.5378 8.54029 12.3262 7.89183C11.9462 6.72752 11.3343 5.17621 10.5719 4.05902C9.83546 2.98066 8.94798 2.11375 8.13011 1.41163C7.49015 0.862237 6.43943 1.3495 6.30416 2.18201C6.11417 3.35121 5.79279 4.52946 5.39844 5.271C4.75469 6.48193 4.63385 6.5262 3.82917 7.42725C3.025 8.32829 2.65573 8.60693 1.98281 9.70068C1.31042 10.7944 1.1875 12.2512 1.1875 13.322C1.1875 17.6845 4.71094 20.9168 9 20.9168Z" stroke="#FD3250" stroke-width="1.6" stroke-linejoin="round"/>
</svg>
