<svg width="26" height="25" viewBox="0 0 26 25" fill="none" xmlns="http://www.w3.org/2000/svg">
<path d="M13 15.9995V16.0099" stroke="#4674EB" stroke-width="1.7" stroke-linecap="round" stroke-linejoin="round"/>
<path d="M10.917 19.1245V19.1349" stroke="#4674EB" stroke-width="1.7" stroke-linecap="round" stroke-linejoin="round"/>
<path d="M15.0835 19.1245V19.1349" stroke="#4674EB" stroke-width="1.7" stroke-linecap="round" stroke-linejoin="round"/>
<path d="M7.5 6.99951H18.5L18.1566 4.18951C18.0827 3.58477 17.7953 3.02846 17.3485 2.62517C16.9018 2.22187 16.3263 1.99938 15.7304 1.99951H10.2696C9.67344 1.99907 9.09772 2.22143 8.65069 2.62475C8.20366 3.02807 7.91614 3.58455 7.84222 4.18951L7.5 6.99951Z" stroke="#4674EB" stroke-width="1.7" stroke-linecap="round" stroke-linejoin="round"/>
<path d="M7.50258 6.99951L5.53328 19.8942C5.47491 20.2762 5.49349 20.6676 5.58773 21.041C5.68198 21.4145 5.84963 21.761 6.07903 22.0565C6.30842 22.3521 6.59406 22.5895 6.91606 22.7524C7.23806 22.9152 7.58871 22.9996 7.9436 22.9995H18.0564C18.4113 22.9996 18.7619 22.9152 19.0839 22.7524C19.4059 22.5895 19.6916 22.3521 19.921 22.0565C20.1504 21.761 20.318 21.4145 20.4123 21.041C20.5065 20.6676 20.5251 20.2762 20.4667 19.8942L18.4974 6.99951" stroke="#4674EB" stroke-width="1.7" stroke-linecap="round" stroke-linejoin="round"/>
</svg>
