<svg width="172" height="55" viewBox="0 0 172 55" fill="none" xmlns="http://www.w3.org/2000/svg">
<path fill-rule="evenodd" clip-rule="evenodd" d="M109.705 6.75651C109.705 8.17361 108.794 9.31235 106.972 10.1727C104.492 11.3368 98.2926 13.0575 88.373 15.335L87.0065 12.2984C91.7639 9.81845 96.0658 7.28793 99.9122 4.70679C103.759 2.12565 106.137 0.556718 107.048 0C107.554 0.708548 108.111 1.82198 108.718 3.3403C109.376 4.85862 109.705 5.99735 109.705 6.75651Z" fill="#F2894F"/>
<path fill-rule="evenodd" clip-rule="evenodd" d="M4.785 41.285C4.52833 42.0917 3.94167 42.495 3.025 42.495C2.145 42.495 1.13667 42 0 41.01C1.1 37.7833 3.42833 32.595 6.985 25.445C10.5417 18.2583 12.8517 12.8867 13.915 9.33001C14.0617 8.74335 14.135 8.34001 14.135 8.12001C14.135 7.57001 13.7317 6.72668 12.925 5.59001L12.485 4.98501L12.595 4.27001C15.7117 3.39001 19.1583 2.95001 22.935 2.95001L26.29 3.17001C26.6933 3.72001 27.005 4.56335 27.225 5.70001C27.8117 8.48668 28.105 15.655 28.105 27.205C28.105 31.6783 28.49 34.8317 29.26 36.665C29.5533 37.3617 29.8467 37.71 30.14 37.71C30.4333 37.71 31.3317 37.3433 32.835 36.61L35.9664 35.0261C36.8184 30.4674 37.2445 26.8154 37.2445 24.07C37.2445 23.3733 37.0795 22.64 36.7495 21.87C36.4195 21.0633 36.0711 20.44 35.7045 20L35.2095 19.395L35.2645 18.68C36.9878 18.13 40.0311 17.855 44.3945 17.855C44.7978 18.625 45.0545 19.7067 45.1645 21.1C47.9878 18.79 50.3345 17.635 52.2045 17.635C54.1111 17.635 55.6328 18.4233 56.7695 20C57.9428 21.5767 58.5295 23.8867 58.5295 26.93C58.5295 32.2467 57.5578 36.2067 55.6145 38.81C53.6711 41.3767 51.2145 42.66 48.2445 42.66C46.7045 42.66 45.4211 42.44 44.3945 42L42.2066 40.8637C41.3185 45.6702 40.8745 49.6607 40.8745 52.835C38.8945 53.6417 36.3461 54.1367 33.2295 54.32C33.0461 53.88 32.9545 52.9083 32.9545 51.405C32.9545 49.9017 33.6695 45.8684 35.0995 39.305C35.2352 38.6783 35.3646 38.0653 35.4875 37.4661L34.65 38.26C33.2567 39.6167 31.6983 40.6983 29.975 41.505C28.2883 42.275 26.73 42.66 25.3 42.66C21.5967 42.66 19.745 39.7817 19.745 34.025V29.68C18.7917 29.46 17.3433 29.35 15.4 29.35C13.4567 29.35 11.33 29.5333 9.02 29.9C7.18667 34.1533 5.775 37.9483 4.785 41.285ZM43.1 39.0836C42.9048 39.0187 42.7272 38.9597 42.5825 38.9129C42.6867 38.3924 42.7957 37.8631 42.9095 37.325C44.2661 30.9083 45.0178 26.4167 45.1645 23.85C46.3745 23.0067 47.5111 22.585 48.5745 22.585C49.9311 22.585 50.6095 24.235 50.6095 27.535C50.6095 29.845 50.2428 32.3567 49.5095 35.07C49.1428 36.4267 48.5928 37.545 47.8595 38.425C47.1628 39.305 46.3378 39.745 45.3845 39.745C45.0908 39.745 43.9357 39.3612 43.1017 39.0841L43.1 39.0836ZM19.855 25.94L19.91 19.56C19.91 13.9867 19.6717 10.21 19.195 8.23001C18.9017 8.23001 18.6817 8.26668 18.535 8.34001C17.5083 11.1633 16.5367 13.565 15.62 15.545C14.74 17.4883 13.7683 19.5783 12.705 21.815L10.78 25.94H19.855ZM59.1654 51.405C59.1654 52.9083 59.2571 53.88 59.4404 54.32C62.5571 54.1367 65.1054 53.6417 67.0854 52.835C67.0854 49.7024 67.5178 45.775 68.3828 41.0529L70.6054 42C71.6321 42.44 72.9154 42.66 74.4554 42.66C77.4254 42.66 79.8821 41.3767 81.8254 38.81C83.7687 36.2067 84.7404 32.2467 84.7404 26.93C84.7404 23.8867 84.1537 21.5767 82.9804 20C81.8437 18.4233 80.3221 17.635 78.4154 17.635C76.5454 17.635 74.1987 18.79 71.3754 21.1C71.2654 19.7067 71.0087 18.625 70.6054 17.855C66.2421 17.855 63.1987 18.13 61.4754 18.68L61.4204 19.395L61.9154 20C62.2821 20.44 62.6304 21.0633 62.9604 21.87C63.2904 22.64 63.4554 23.3733 63.4554 24.07C63.4554 27.6267 62.7404 32.705 61.3104 39.305C59.8804 45.8684 59.1654 49.9017 59.1654 51.405ZM68.7422 39.1698C69.707 39.392 71.2764 39.745 71.5954 39.745C72.5487 39.745 73.3737 39.305 74.0704 38.425C74.8037 37.545 75.3537 36.4267 75.7204 35.07C76.4537 32.3567 76.8204 29.845 76.8204 27.535C76.8204 24.235 76.1421 22.585 74.7854 22.585C73.7221 22.585 72.5854 23.0067 71.3754 23.85C71.2287 26.4167 70.4771 30.9083 69.1204 37.325C68.9879 37.9519 68.8618 38.5668 68.7422 39.1698ZM87.0263 32.485C87.0263 27.9017 88.4013 24.29 91.1513 21.65C93.938 18.9733 97.0913 17.635 100.611 17.635C102.775 17.635 104.553 18.1667 105.946 19.23C107.34 20.2933 108.036 21.7233 108.036 23.52C108.036 25.28 107.578 26.765 106.661 27.975C105.781 29.185 104.7 30.12 103.416 30.78C100.813 32.0633 98.4297 32.87 96.2663 33.2L94.9463 33.365C95.203 36.8117 96.6147 38.535 99.1813 38.535C100.061 38.535 100.996 38.315 101.986 37.875C102.976 37.435 103.746 36.995 104.296 36.555L105.121 35.895L106.441 37.655C106.148 38.0583 105.561 38.59 104.681 39.25C103.801 39.91 102.976 40.46 102.206 40.9C100.08 42.0733 97.7513 42.66 95.2213 42.66C92.6913 42.66 90.693 41.7617 89.2263 39.965C87.7597 38.1684 87.0263 35.675 87.0263 32.485ZM94.8913 30.67C96.7613 30.34 98.2463 29.5517 99.3463 28.305C100.446 27.0583 100.996 25.445 100.996 23.465C100.996 21.485 100.41 20.495 99.2363 20.495C97.843 20.495 96.7613 21.6867 95.9913 24.07C95.258 26.4167 94.8913 28.6167 94.8913 30.67ZM123.239 21.1553C122.603 21.2126 122.006 21.265 121.534 21.265H120.544C118.857 29.4417 118.014 34.5383 118.014 36.555C118.014 37.6184 118.234 38.15 118.674 38.15C119.151 38.15 120.379 37.6917 122.359 36.775L123.349 38.59C120.086 41.3033 117.061 42.66 114.274 42.66C112.991 42.66 111.927 42.2567 111.084 41.45C110.277 40.6433 109.874 39.58 109.874 38.26C109.874 36.9033 110.021 35.3817 110.314 33.695C110.644 32.0083 111.084 29.955 111.634 27.535C112.184 25.0783 112.587 23.0983 112.844 21.595C111.487 21.705 110.479 21.815 109.819 21.925C109.746 21.485 109.709 20.8983 109.709 20.165C109.709 19.395 109.764 18.7717 109.874 18.295H113.339C113.632 16.315 113.779 14.445 113.779 12.685L113.724 10.98V10.815C116.584 9.82501 119.279 9.33001 121.809 9.33001C121.956 10.0633 122.029 10.98 122.029 12.08C122.029 13.1441 121.737 15.1174 121.154 18H137.006H145.125C145.39 16.129 145.522 14.3574 145.522 12.685L145.467 10.98V10.815C148.327 9.82501 151.022 9.33001 153.552 9.33001C153.699 10.0633 153.772 10.98 153.772 12.08C153.772 13.1441 153.481 15.1174 152.897 18H171.006L166.006 24C165.866 23.9437 165.664 23.8352 165.402 23.6937C164.108 22.9969 161.329 21.5 157.006 21.5C156.076 21.5 154.418 21.4893 152.245 21.4709C150.586 29.5273 149.757 34.5553 149.757 36.555C149.757 37.6184 149.977 38.15 150.417 38.15C150.894 38.15 152.122 37.6917 154.102 36.775L155.092 38.59C151.829 41.3033 148.804 42.66 146.017 42.66C144.734 42.66 143.671 42.2567 142.827 41.45C142.021 40.6433 141.617 39.58 141.617 38.26C141.617 36.9033 141.764 35.3817 142.057 33.695C142.387 32.0083 142.827 29.955 143.377 27.535C143.927 25.0783 144.331 23.0983 144.587 21.595C144.017 21.6413 143.498 21.5239 143.039 21.3806C141.223 21.3613 139.312 21.3405 137.352 21.3186C137.299 22.891 136.806 25.4581 135.872 29.02C134.882 32.76 134.387 35.2167 134.387 36.39C134.387 37.5267 134.552 38.095 134.882 38.095C135.102 38.095 135.945 37.7467 137.412 37.05L138.072 36.72L139.007 38.645C138.677 38.9384 138.237 39.305 137.687 39.745C137.137 40.185 136.11 40.79 134.607 41.56C133.104 42.2933 131.71 42.66 130.427 42.66C129.144 42.66 128.135 42.275 127.402 41.505C126.669 40.6983 126.302 39.635 126.302 38.315C126.302 36.9583 126.76 34.575 127.677 31.165C128.594 27.7183 129.052 25.4817 129.052 24.455C129.052 23.3257 128.796 22.2456 128.283 21.2148C126.58 21.1949 124.89 21.175 123.239 21.1553ZM131.087 11.915C130.354 11.1817 129.987 10.21 129.987 9.00001C129.987 7.79001 130.482 6.72668 131.472 5.81001C132.499 4.89335 133.672 4.43501 134.992 4.43501C136.312 4.43501 137.339 4.80168 138.072 5.53501C138.805 6.26835 139.172 7.24001 139.172 8.45001C139.172 9.62335 138.64 10.6683 137.577 11.585C136.55 12.5017 135.395 12.96 134.112 12.96C132.829 12.96 131.82 12.6117 131.087 11.915Z" fill="#462F4D"/>
</svg>
