<svg width="375" height="812" viewBox="0 0 375 812" fill="none" xmlns="http://www.w3.org/2000/svg">
<path fill-rule="evenodd" clip-rule="evenodd" d="M501 331C501 463.44 429.631 583.418 314.094 670.319C198.556 757.221 38.8969 811 -137.5 811C-313.897 811 -473.556 757.221 -589.094 670.319C-704.631 583.418 -776 463.44 -776 331C-776 198.56 -704.631 78.5821 -589.094 -8.31918C-473.556 -95.2208 -313.897 -149 -137.5 -149C38.8969 -149 198.556 -95.2208 314.094 -8.31918C429.631 78.5821 501 198.56 501 331ZM502 331C502 596.649 215.686 812 -137.5 812C-490.686 812 -777 596.649 -777 331C-777 65.351 -490.686 -150 -137.5 -150C215.686 -150 502 65.351 502 331ZM228.553 592.523C322.197 525.519 380 433.043 380 331C380 228.957 322.197 136.481 228.553 69.4766C134.911 2.47351 5.49506 -39 -137.5 -39C-280.495 -39 -409.911 2.47351 -503.553 69.4766C-597.197 136.481 -655 228.957 -655 331C-655 433.043 -597.197 525.519 -503.553 592.523C-409.911 659.526 -280.495 701 -137.5 701C5.49506 701 134.911 659.526 228.553 592.523ZM-137.5 702C148.86 702 381 535.898 381 331C381 126.102 148.86 -40 -137.5 -40C-423.86 -40 -656 126.102 -656 331C-656 535.898 -423.86 702 -137.5 702ZM315 331C315 396.332 279.286 455.559 221.386 498.488C163.485 541.418 83.4489 568 -5 568C-93.4489 568 -173.485 541.418 -231.386 498.488C-289.286 455.559 -325 396.332 -325 331C-325 265.668 -289.286 206.441 -231.386 163.512C-173.485 120.582 -93.4489 94 -5 94C83.4489 94 163.485 120.582 221.386 163.512C279.286 206.441 315 265.668 315 331ZM316 331C316 462.444 172.283 569 -5 569C-182.283 569 -326 462.444 -326 331C-326 199.556 -182.283 93 -5 93C172.283 93 316 199.556 316 331ZM253 331C253 427.586 169.119 506 65.5 506C-38.1191 506 -122 427.586 -122 331C-122 234.414 -38.1191 156 65.5 156C169.119 156 253 234.414 253 331ZM254 331C254 428.202 169.606 507 65.5 507C-38.6057 507 -123 428.202 -123 331C-123 233.798 -38.6057 155 65.5 155C169.606 155 254 233.798 254 331Z" fill="#F9E3D5"/>
<rect x="59.4319" y="386.081" width="6.7608" height="6.7608" rx="2.5" transform="rotate(28.3091 59.4319 386.081)" fill="#F2894F"/>
<rect x="288.206" y="477" width="6.7608" height="6.7608" rx="2.5" transform="rotate(28.3091 288.206 477)" fill="#4674EB"/>
<rect x="113.206" y="113" width="6.7608" height="6.7608" rx="2.5" transform="rotate(28.3091 113.206 113)" fill="#2E8D92"/>
<rect x="230.206" y="210" width="6.7608" height="6.7608" rx="2.5" transform="rotate(28.3091 230.206 210)" fill="#FD3250"/>
</svg>
