<svg width="26" height="25" viewBox="0 0 26 25" fill="none" xmlns="http://www.w3.org/2000/svg">
<path d="M4.13031 14.4166C3.85291 14.8318 3.74547 15.2895 3.6965 15.7709C3.64996 16.2284 3.64998 16.7915 3.65 17.4574L3.65 17.5L3.65 17.5426C3.64998 18.2085 3.64996 18.7716 3.6965 19.2291C3.74547 19.7105 3.85291 20.1682 4.13031 20.5834C4.33824 20.8946 4.60543 21.1618 4.91662 21.3697C5.33179 21.6471 5.78952 21.7545 6.2709 21.8035C6.72836 21.85 7.2915 21.85 7.95744 21.85L8 21.85L8.04256 21.85C8.7085 21.85 9.27164 21.85 9.7291 21.8035C10.2105 21.7545 10.6682 21.6471 11.0834 21.3697C11.3946 21.1618 11.6618 20.8946 11.8697 20.5834C12.1471 20.1682 12.2545 19.7105 12.3035 19.2291C12.35 18.7716 12.35 18.2085 12.35 17.5426L12.35 17.5L12.35 17.4574C12.35 16.7915 12.35 16.2284 12.3035 15.7709C12.2545 15.2895 12.1471 14.8318 11.8697 14.4166C11.6618 14.1054 11.3946 13.8382 11.0834 13.6303C10.6682 13.3529 10.2105 13.2455 9.7291 13.1965C9.27164 13.15 8.7085 13.15 8.04256 13.15L8 13.15L7.95744 13.15C7.2915 13.15 6.72836 13.15 6.2709 13.1965C5.78952 13.2455 5.33179 13.3529 4.91662 13.6303C4.60543 13.8382 4.33824 14.1054 4.13031 14.4166Z" stroke="#F2894F" stroke-width="1.7"/>
<path d="M14.1303 14.4166C13.8529 14.8318 13.7455 15.2895 13.6965 15.7709C13.65 16.2284 13.65 16.7915 13.65 17.4574L13.65 17.5L13.65 17.5426C13.65 18.2085 13.65 18.7716 13.6965 19.2291C13.7455 19.7105 13.8529 20.1682 14.1303 20.5834C14.3382 20.8946 14.6054 21.1618 14.9166 21.3697C15.3318 21.6471 15.7895 21.7545 16.2709 21.8035C16.7284 21.85 17.2915 21.85 17.9574 21.85L18 21.85L18.0426 21.85C18.7085 21.85 19.2716 21.85 19.7291 21.8035C20.2105 21.7545 20.6682 21.6471 21.0834 21.3697C21.3946 21.1618 21.6618 20.8946 21.8697 20.5834C22.1471 20.1682 22.2545 19.7105 22.3035 19.2291C22.35 18.7716 22.35 18.2085 22.35 17.5426L22.35 17.5L22.35 17.4574C22.35 16.7915 22.35 16.2284 22.3035 15.7709C22.2545 15.2895 22.1471 14.8318 21.8697 14.4166C21.6618 14.1054 21.3946 13.8382 21.0834 13.6303C20.6682 13.3529 20.2105 13.2455 19.7291 13.1965C19.2716 13.15 18.7085 13.15 18.0426 13.15L18 13.15L17.9574 13.15C17.2915 13.15 16.7284 13.15 16.2709 13.1965C15.7895 13.2455 15.3318 13.3529 14.9166 13.6303C14.6054 13.8382 14.3382 14.1054 14.1303 14.4166Z" stroke="#F2894F" stroke-width="1.7"/>
<path d="M9.13031 5.41662C8.85291 5.83179 8.74547 6.28952 8.6965 6.7709C8.64996 7.22836 8.64998 7.7915 8.65 8.45744L8.65 8.5L8.65 8.54256C8.64998 9.2085 8.64996 9.77164 8.6965 10.2291C8.74547 10.7105 8.85291 11.1682 9.13031 11.5834C9.33824 11.8946 9.60543 12.1618 9.91662 12.3697C10.3318 12.6471 10.7895 12.7545 11.2709 12.8035C11.7284 12.85 12.2915 12.85 12.9574 12.85L13 12.85L13.0426 12.85C13.7085 12.85 14.2716 12.85 14.7291 12.8035C15.2105 12.7545 15.6682 12.6471 16.0834 12.3697C16.3946 12.1618 16.6618 11.8946 16.8697 11.5834C17.1471 11.1682 17.2545 10.7105 17.3035 10.2291C17.35 9.77164 17.35 9.2085 17.35 8.54256L17.35 8.5L17.35 8.45744C17.35 7.7915 17.35 7.22836 17.3035 6.7709C17.2545 6.28952 17.1471 5.83179 16.8697 5.41663C16.6618 5.10543 16.3946 4.83824 16.0834 4.63031C15.6682 4.35291 15.2105 4.24547 14.7291 4.1965C14.2716 4.14996 13.7085 4.14998 13.0426 4.15L13 4.15L12.9574 4.15C12.2915 4.14998 11.7284 4.14996 11.2709 4.1965C10.7895 4.24547 10.3318 4.35291 9.91662 4.63031C9.60543 4.83824 9.33824 5.10543 9.13031 5.41662Z" stroke="#F2894F" stroke-width="1.7"/>
<circle cx="13" cy="14.5" r="1.5" fill="#F2894F"/>
</svg>
