<?xml version="1.0" encoding="UTF-8"?>
<svg xmlns="http://www.w3.org/2000/svg" xmlns:xlink="http://www.w3.org/1999/xlink" width="24px" height="24px" viewBox="0 0 24 24" version="1.1">
  <title>icon_设备连接</title>
  <g id="图标" stroke="none" stroke-width="1" fill="none" fill-rule="evenodd">
    <g id="icon" transform="translate(-602.000000, -204.000000)" fill="#FFFFFF" fill-rule="nonzero">
      <g id="设置/选项图标/Wi-Fi" transform="translate(602.000000, 204.000000)">
        <path d="M10.2070919,3 C10.9198608,3 11.4764873,3.55497622 11.5395064,4.23415929 L11.5454556,4.3628565 L11.5454556,7.053195 C11.5454556,7.55025127 11.1384417,7.953195 10.6363647,7.953195 C10.1701502,7.953195 9.78590351,7.60575883 9.73338977,7.15815401 L9.72727365,7.053195 L9.72636456,4.8 L3.81727309,4.8 L3.81727309,19.2 L9.72636456,19.2 L9.72727365,16.946805 C9.72727365,16.4852527 10.0782193,16.1048486 10.5303454,16.05286 L10.6363647,16.046805 C11.1025791,16.046805 11.4868258,16.3942412 11.5393395,16.841846 L11.5454556,16.946805 L11.5454556,19.63713 C11.5454556,20.3301675 11.0307624,20.925912 10.3388249,20.9936015 L10.2070919,21 L3.33838214,21 C2.62561617,21 2.06897099,20.4450285 2.00594964,19.7658303 L2.00000019,19.63713 L2.00000019,4.3628565 C2.00000019,3.66982382 2.51472358,3.07408704 3.20665145,3.00639839 L3.33838214,3 L10.2070919,3 Z M20.6616383,3 C21.3744072,3 21.9310337,3.55497622 21.9940529,4.23415929 L22.0000021,4.3628565 L22.0000021,19.63713 C22.0000021,20.3301675 21.4853088,20.925912 20.7933713,20.9936015 L20.6616383,21 L13.7929104,21 C13.0801355,21 12.5235143,20.4450224 12.4604958,19.7658292 L12.4545466,19.63713 L12.4545466,16.946805 C12.4545466,16.4497487 12.8615605,16.046805 13.3636376,16.046805 C13.8298521,16.046805 14.2140988,16.3942412 14.2666125,16.841846 L14.2727286,16.946805 L14.2718195,19.2 L20.180911,19.2 L20.180911,4.8 L14.2718195,4.8 L14.2727286,7.053195 C14.2727286,7.51474726 13.921783,7.89515144 13.4696569,7.94714004 L13.3636376,7.953195 C12.8974232,7.953195 12.5131765,7.60575883 12.4606628,7.15815401 L12.4545466,7.053195 L12.4545466,4.3628565 C12.4545466,3.66983026 12.9692455,3.07408779 13.6611784,3.00639846 L13.7929104,3 L20.6616383,3 Z M6.77272792,16.5 C7.27481888,16.5 7.68181891,16.90293 7.68181891,17.4 C7.68181891,17.89707 7.27481888,18.3 6.77272792,18.3 C6.27063696,18.3 5.86363692,17.89707 5.86363692,17.4 C5.86363692,16.90293 6.27063696,16.5 6.77272792,16.5 Z M17.2272744,16.5 C17.7293653,16.5 18.1363654,16.90293 18.1363654,17.4 C18.1363654,17.89707 17.7293653,18.3 17.2272744,18.3 C16.7251834,18.3 16.3181834,17.89707 16.3181834,17.4 C16.3181834,16.90293 16.7251834,16.5 17.2272744,16.5 Z M13.9298676,8.8534927 L14.0221372,8.91588415 L14.1077802,8.9907539 L16.2635287,11.1234663 C16.4372208,11.2873835 16.5454561,11.5186783 16.5454561,11.775 C16.5454561,12.0313217 16.4372208,12.2626165 16.2635287,12.4265337 L14.10776,14.5592211 C13.7527268,14.9106819 13.1771222,14.910664 12.8221112,14.5591811 C12.4944088,14.2347353 12.4692163,13.7242266 12.7465229,13.3711731 L12.8221516,13.2863889 L13.4381831,12.675 L8.36363716,12.675 C7.86156007,12.675 7.45454617,12.2720563 7.45454617,11.775 C7.45454617,11.3134477 7.80549183,10.9330436 8.25761795,10.881055 L8.36363716,10.875 L13.4390922,10.875 L12.8221314,10.2635461 C12.4671093,9.91207424 12.4671093,9.34222576 12.8221314,8.9907539 C13.1225348,8.69335463 13.5808699,8.6476009 13.9298676,8.8534927 Z" id="形状结合"></path>
      </g>
    </g>
  </g>
</svg>
