<?xml version="1.0" encoding="UTF-8"?>
<svg xmlns="http://www.w3.org/2000/svg" xmlns:xlink="http://www.w3.org/1999/xlink" width="24px" height="24px" viewBox="0 0 24 24" version="1.1">
  <title>icon_设备信息</title>
  <g id="图标" stroke="none" stroke-width="1" fill="none" fill-rule="evenodd">
    <g id="icon" transform="translate(-470.000000, -204.000000)" fill="#FFFFFF" fill-rule="nonzero">
      <g id="设置/选项图标/Wi-Fi" transform="translate(470.000000, 204.000000)">
        <path d="M21.0000002,19 C21.5522868,19 22.0000002,19.4477153 22.0000002,20 C22.0000002,20.5128358 21.6139619,20.9355072 21.1166231,20.9932723 L21.0000002,21 L3.00000019,21 C2.44771548,21 2.00000019,20.5522847 2.00000019,20 C2.00000019,19.4871642 2.38604042,19.0644928 2.88337915,19.0067277 L3.00000019,19 L21.0000002,19 Z M21.0000002,15 C21.5522868,15 22.0000002,15.4477153 22.0000002,16 C22.0000002,16.5128358 21.6139619,16.9355072 21.1166231,16.9932723 L21.0000002,17 L3.00000019,17 C2.44771548,17 2.00000019,16.5522847 2.00000019,16 C2.00000019,15.4871642 2.38604042,15.0644928 2.88337915,15.0067277 L3.00000019,15 L21.0000002,15 Z M19.0000002,3 C20.5976828,3 21.9036612,4.24891996 21.9949075,5.82372721 L22.0000002,6 L22.0000002,10 C22.0000002,11.5976809 20.7510819,12.9036609 19.1762732,12.9949073 L19.0000002,13 L5.00000019,13 C3.40231943,13 2.09633932,11.75108 2.00509288,10.1762728 L2.00000019,10 L2.00000019,6 C2.00000019,4.40231912 3.24892027,3.09633912 4.82372742,3.00509269 L5.00000019,3 L19.0000002,3 Z M10.0000006,7 L7.00000057,7 L6.88337953,7.00672773 C6.3860408,7.06449284 6.00000057,7.48716416 6.00000057,8 C6.00000057,8.51283584 6.3860408,8.93550716 6.88337945,8.99327227 L7.00000057,9 L10.0000006,9 L10.1166221,8.99327227 C10.6139608,8.93550716 11.0000006,8.51283584 11.0000006,8 C11.0000006,7.44771525 10.5522858,7 10.0000006,7 Z" id="形状结合"></path>
      </g>
    </g>
  </g>
</svg>
