<?xml version="1.0" encoding="UTF-8"?>
<svg xmlns="http://www.w3.org/2000/svg" xmlns:xlink="http://www.w3.org/1999/xlink" width="24px" height="24px" viewBox="0 0 24 24" version="1.1">
  <title>icon_工厂模式</title>
  <g id="图标" stroke="none" stroke-width="1" fill="none" fill-rule="evenodd">
    <g id="icon" transform="translate(-558.000000, -204.000000)" fill="#FFFFFF">
      <g id="设置/选项图标/Wi-Fi" transform="translate(558.000000, 204.000000)">
        <path d="M6.50000062,3.53846154 C6.50000062,4.95457628 7.61928885,6.1025641 9.00000062,6.1025641 L15.0000006,6.1025641 L15.1919406,6.09436477 C16.5172097,5.96565579 17.5000006,4.86285203 17.5000006,3.53846154 L18.0000004,3.53846154 C19.1045699,3.53846154 20.0000004,4.43389204 20.0000004,5.53846154 L20.0000004,20 C20.0000004,21.1045695 19.1045699,22 18.0000004,22 L6.00000038,22 C4.89543088,22 4.00000038,21.1045695 4.00000038,20 L4.00000038,5.53846154 C4.00000038,4.43389204 4.89543088,3.53846154 6.00000038,3.53846154 L6.50000062,3.53846154 Z M7.79451137,14.1919809 C7.52100472,14.0319447 7.17264242,14.0812974 6.94851976,14.326744 L6.94851976,14.326744 L6.87705288,14.418509 L6.82146753,14.5185064 C6.69441529,14.7943132 6.73676604,15.135979 6.94851976,15.3678798 L6.94851976,15.3678798 L7.68500073,16.174 L6.94855532,16.9816003 L6.89278869,17.0512787 L6.83198272,17.1566778 C6.69278647,17.4456345 6.73659412,17.7906859 6.94851976,18.0227751 L6.94851976,18.0227751 L7.02821014,18.0978907 L7.11528917,18.1579833 C7.38596732,18.3157262 7.73422635,18.2706568 7.96057257,18.0227751 L7.96057257,18.0227751 L8.66600083,17.248 L9.37276114,18.0227737 L9.43660782,18.0840629 L9.52855022,18.1485303 C9.81233027,18.3175743 10.1606926,18.2682217 10.3848152,18.0227751 L10.3848152,18.0227751 L10.4562821,17.93101 L10.5118675,17.8310126 C10.6389197,17.5552058 10.596569,17.2135401 10.3848152,16.9816392 L10.3848152,16.9816392 L9.64700092,16.174 L10.3847035,15.3680021 L10.4405463,15.2982403 L10.5013523,15.1928412 C10.6405485,14.9038846 10.5967409,14.5588331 10.3848152,14.326744 L10.3848152,14.326744 L10.3051248,14.2516283 L10.2180458,14.1915358 C9.94736767,14.0337928 9.59910864,14.0788622 9.37276242,14.326744 L9.37276242,14.326744 L8.66600083,15.1 L7.96065483,14.3268341 L7.88263471,14.2530997 Z M16.5454561,15.4269667 L12.3030315,15.4269667 L12.2229832,15.4321867 L12.115926,15.4561246 C11.805758,15.5504493 11.598486,15.8416338 11.598486,16.1747595 C11.598486,16.5829384 11.9085949,16.9225524 12.3030315,16.9225524 L12.3030315,16.9225524 L16.5454561,16.9225524 L16.6255044,16.9173324 L16.7325616,16.8933944 C17.0427296,16.7990698 17.2500016,16.5078853 17.2500016,16.1747595 C17.2500016,15.7665807 16.9398927,15.4269667 16.5454561,15.4269667 L16.5454561,15.4269667 Z M9.89897019,8.75829488 C9.59414682,8.69731847 9.2721884,8.85261072 9.11142792,9.14404574 L9.11142792,9.14404574 L8.26400079,10.68 L7.97210514,10.4361318 L7.90744347,10.3887293 L7.80949683,10.3381221 C7.50996047,10.2112486 7.1658556,10.3068583 6.9580703,10.5696235 C6.70671595,10.8874862 6.73440661,11.3469641 7.03470456,11.5986467 L7.03470456,11.5986467 L7.97793075,12.3891736 L8.04023863,12.4351028 L8.1320853,12.4836642 C8.47495182,12.6343537 8.87660608,12.487155 9.06441764,12.1466803 L9.06441764,12.1466803 L10.3469905,9.82156507 L10.3829678,9.74677775 L10.4181092,9.63897511 C10.5001329,9.31409706 10.3734563,8.98275184 10.0895358,8.82757356 L10.0895358,8.82757356 L9.99969872,8.78674021 Z M16.5454561,10.1171762 L12.3030315,10.1171762 L12.2229832,10.1223962 L12.115926,10.1463342 C11.805758,10.2406588 11.598486,10.5318433 11.598486,10.8649691 C11.598486,11.2731479 11.9085949,11.6127619 12.3030315,11.6127619 L12.3030315,11.6127619 L16.5454561,11.6127619 L16.6255044,11.6075419 L16.7325616,11.583604 C17.0427296,11.4892793 17.2500016,11.1980948 17.2500016,10.8649691 C17.2500016,10.4567902 16.9398927,10.1171762 16.5454561,10.1171762 L16.5454561,10.1171762 Z M15.0000007,2 C15.8284286,2 16.5000007,2.68879269 16.5000007,3.53846154 C16.5000007,4.33814986 15.9051134,4.99533198 15.1444615,5.06988043 L15.0000007,5.07692308 L9.00000072,5.07692308 C8.17157365,5.07692308 7.50000072,4.38813038 7.50000072,3.53846154 C7.50000072,2.73877321 8.09488886,2.0815911 8.85554083,2.00704264 L9.00000072,2 L15.0000007,2 Z" id="形状结合"></path>
      </g>
    </g>
  </g>
</svg>
