<?xml version="1.0" encoding="UTF-8"?>
<svg xmlns="http://www.w3.org/2000/svg" xmlns:xlink="http://www.w3.org/1999/xlink" width="24px" height="24px" viewBox="0 0 24 24" version="1.1">
  <title>icon_settings</title>
  <defs>
    <rect id="path-1" x="0" y="0" width="24" height="24"></rect>
    <path d="M13.787068,3.80513026 C14.0808811,5.01539179 15.4674649,5.5897337 16.5310064,4.94170659 C18.1773873,3.93854936 20.0614539,5.82261658 19.0582965,7.46899719 C18.4102692,8.5325386 18.9846112,9.91912184 20.1948729,10.2129349 C22.0683795,10.6677626 22.0683795,13.3322377 20.1948729,13.7870656 C18.9846113,14.0808787 18.4102693,15.4674626 19.0582965,16.5310038 C20.0614538,18.1773843 18.1773871,20.0614519 16.5310064,19.0582947 C15.4674651,18.4102676 14.0808811,18.9846095 13.787068,20.194871 C13.33224,22.0683774 10.6677647,22.0683774 10.2129369,20.194871 C9.9191238,18.9846093 8.53254094,18.4102674 7.46899943,19.0582947 C5.82261866,20.061452 3.93855024,18.1773846 4.94170757,16.5310038 C5.58973474,15.4674624 5.01539227,14.0808788 3.80513062,13.7870656 C1.93162402,13.3322377 1.93162313,10.6677626 3.80512973,10.2129349 C5.01539176,9.91912181 5.58973385,8.53253873 4.94170656,7.46899719 C3.93854916,5.82261632 5.82261739,3.93854828 7.46899841,4.94170558 C8.53254005,5.58973281 9.91912377,5.01539129 10.2129369,3.80512937 C10.6677647,1.93162295 13.33224,1.93162384 13.787068,3.80513026 Z M12.0000011,8.4 C10.0117758,8.4 8.4000008,10.0117749 8.4000008,12 C8.4000008,13.9882251 10.0117758,15.6 12.0000011,15.6 C13.9882265,15.6 15.6000015,13.9882251 15.6000015,12 C15.6000015,10.0117749 13.9882265,8.4 12.0000011,8.4 Z" id="path-3"></path>
  </defs>
  <g id="图标" stroke="none" stroke-width="1" fill="none" fill-rule="evenodd">
    <g id="icon" transform="translate(-470.000000, -160.000000)">
      <g id="icon_settings" transform="translate(470.000002, 160.000000)">
        <mask id="mask-2" fill="white">
          <use xlink:href="#path-1"></use>
        </mask>
        <g id="蒙版"></g>
        <g id="编组" mask="url(#mask-2)">
          <g id="设置/选项图标/Wi-Fi">
            <mask id="mask-4" fill="white">
              <use xlink:href="#path-3"></use>
            </mask>
            <use id="Icon" fill="#FFFFFF" xlink:href="#path-3"></use>
          </g>
        </g>
      </g>
    </g>
  </g>
</svg>
