<?xml version="1.0" encoding="UTF-8"?>
<svg xmlns="http://www.w3.org/2000/svg" xmlns:xlink="http://www.w3.org/1999/xlink" width="24px" height="24px" viewBox="0 0 24 24" version="1.1">
  <title>icon_about</title>
  <defs>
    <rect id="path-1" x="0" y="0" width="24" height="24"></rect>
    <path d="M12.0000011,21.6 C6.69806735,21.6 2.40000023,17.3019333 2.40000023,12 C2.40000023,6.69806671 6.69806735,2.4 12.0000011,2.4 C17.3019349,2.4 21.6000021,6.69806671 21.6000021,12 C21.6000021,17.3019333 17.3019349,21.6 12.0000011,21.6 Z M12.0000011,8.4 C11.3372594,8.4 10.800001,7.86274166 10.800001,7.2 C10.800001,6.53725834 11.3372594,6 12.0000011,6 C12.6627423,6 13.2000013,6.53725834 13.2000013,7.2 C13.2000013,7.86274166 12.6627423,8.4 12.0000011,8.4 Z M9.60000092,12 C9.60000092,12.6627422 10.1372593,13.2 10.800001,13.2 L10.800001,16.8 C10.800001,17.4627411 11.3372594,18 12.0000011,18 L13.2000013,18 C13.8627424,18 14.4000002,17.4627411 14.4000002,16.8 C14.4000002,16.1372589 13.8627424,15.6 13.2000013,15.6 L13.2000013,12 C13.2000013,11.3372583 12.6627423,10.8 12.0000011,10.8 L10.800001,10.8 C10.1372593,10.8 9.60000092,11.3372583 9.60000092,12 Z" id="path-3"></path>
  </defs>
  <g id="图标" stroke="none" stroke-width="1" fill="none" fill-rule="evenodd">
    <g id="icon" transform="translate(-514.000000, -160.000000)">
      <g id="icon_about" transform="translate(514.000004, 160.000000)">
        <mask id="mask-2" fill="white">
          <use xlink:href="#path-1"></use>
        </mask>
        <g id="蒙版"></g>
        <g id="编组" mask="url(#mask-2)">
          <g id="设置/选项图标/Wi-Fi">
            <mask id="mask-4" fill="white">
              <use xlink:href="#path-3"></use>
            </mask>
            <use id="Icon" fill="#FFFFFF" xlink:href="#path-3"></use>
          </g>
        </g>
      </g>
    </g>
  </g>
</svg>
