<?xml version="1.0" encoding="UTF-8"?>
<svg xmlns="http://www.w3.org/2000/svg" xmlns:xlink="http://www.w3.org/1999/xlink" width="24px" height="24px" viewBox="0 0 24 24" version="1.1">
  <title>icon_wiif</title>
  <defs>
    <rect id="path-1" x="0" y="0" width="24" height="24"></rect>
    <path d="M2.66610657,9.86619015 C2.19747741,10.3348194 1.43767926,10.3348194 0.969050095,9.86619015 C0.500420857,9.39756117 0.500420857,8.63776331 0.969050095,8.16913404 C7.0612294,2.07695532 16.9386033,2.07695532 23.0307838,8.16913404 C23.4994125,8.63776331 23.4994125,9.39756117 23.0307838,9.86619015 C22.5621527,10.3348194 21.8023565,10.3348194 21.3337255,9.86619015 C16.1788048,4.71126938 7.82102841,4.71126938 2.66610657,9.86619015 Z M6.06021939,13.2603104 C5.59159008,13.7289396 4.83179215,13.7289396 4.36316284,13.2603104 C3.89453367,12.7916817 3.89453367,12.0318832 4.36316284,11.5632545 C8.58082548,7.34559202 15.4190086,7.34559202 19.6366707,11.5632545 C20.1053005,12.0318832 20.1053005,12.7916817 19.6366707,13.2603104 C19.1680419,13.7289396 18.4082434,13.7289396 17.9396147,13.2603104 C14.6592101,9.97990665 9.34062398,9.97990665 6.06021939,13.2603104 Z M9.45433192,16.65443 C8.98570318,17.1230598 8.22590468,17.1230598 7.75727594,16.65443 C7.28864663,16.1858013 7.28864663,15.4260029 7.75727594,14.9573742 C10.1004219,12.6142284 13.8994116,12.6142284 16.2425575,14.9573742 C16.7111874,15.4260029 16.7111874,16.1858013 16.2425575,16.65443 C15.7739288,17.1230598 15.0141303,17.1230598 14.5455016,16.65443 C13.1396142,15.2485428 10.8602198,15.2485428 9.45433192,16.65443 Z M11.9999165,18.0000217 L12.0119167,18.0000217 C12.674659,18.0000217 13.2119168,18.5372795 13.2119168,19.2000217 C13.2119168,19.862764 12.674659,20.4000217 12.0119167,20.4000217 L11.9999165,20.4000217 C11.3371747,20.4000217 10.7999163,19.862764 10.7999163,19.2000217 C10.7999163,18.5372795 11.3371747,18.0000217 11.9999165,18.0000217 Z" id="path-3"></path>
  </defs>
  <g id="图标" stroke="none" stroke-width="1" fill="none" fill-rule="evenodd">
    <g id="icon" transform="translate(-426.000000, -160.000000)">
      <g id="icon_wiif" transform="translate(426.000000, 160.000000)">
        <mask id="mask-2" fill="white">
          <use xlink:href="#path-1"></use>
        </mask>
        <g id="蒙版"></g>
        <g id="编组" mask="url(#mask-2)">
          <g id="设置/选项图标/Wi-Fi">
            <mask id="mask-4" fill="white">
              <use xlink:href="#path-3"></use>
            </mask>
            <use id="Icon" fill="#FFFFFF" xlink:href="#path-3"></use>
          </g>
        </g>
      </g>
    </g>
  </g>
</svg>
