<?xml version="1.0" encoding="UTF-8"?>
<svg xmlns="http://www.w3.org/2000/svg" xmlns:xlink="http://www.w3.org/1999/xlink" width="24px" height="24px" viewBox="0 0 24 24" version="1.1">
  <title>icon_app信息</title>
  <g id="图标" stroke="none" stroke-width="1" fill="none" fill-rule="evenodd">
    <g id="icon" transform="translate(-514.000000, -204.000000)" fill="#FFFFFF">
      <g id="设置/选项图标/Wi-Fi" transform="translate(514.000000, 204.000000)">
        <path d="M17.0000004,3 C17.5522851,3 18.0000004,3.44771525 18.0000004,4 L18.0000004,5 L10.0000008,5 C8.89543135,5 8.00000076,5.8954305 8.00000076,7 L8.00000076,10 C8.00000076,11.1045695 8.89543135,12 10.0000008,12 L18.0000004,12 L18.0000004,20 C18.0000004,20.5522847 17.5522851,21 17.0000004,21 L5.00000038,21 C4.44771563,21 4.00000038,20.5522847 4.00000038,20 L4.00000038,4 C4.00000038,3.44771525 4.44771563,3 5.00000038,3 L17.0000004,3 Z M13.1833154,14.1634348 L13.1319238,14.2402767 L12.6874748,14.9982777 L12.6786761,15.0151663 C12.1444604,14.7622849 11.5662453,14.623679 10.9994542,14.623679 C10.5609515,14.623679 10.1156846,14.7066507 9.68928788,14.861231 L9.43591932,14.9624812 L9.01288958,14.2403021 C8.88120099,14.0157092 8.70666673,13.948566 8.48928682,14.0388723 L8.40576096,14.0801177 L8.32772212,14.1307211 C8.16312081,14.25341 8.12094461,14.4083994 8.20119353,14.5956895 L8.24308133,14.6779342 L8.66620222,15.3982465 C7.75768631,16.0434588 7.08511816,17.0501431 7.00913615,18.2584356 L7.00196881,18.487314 L7.00119103,18.5065698 C6.99193677,18.6341208 7.03695022,18.7597193 7.12545634,18.8533003 C7.19626124,18.9281651 7.28980272,18.977134 7.39087952,18.993727 L7.46786247,19 L14.5322681,19 C14.6611846,19 14.7843807,18.9475866 14.8727631,18.855175 C14.9611455,18.7627634 15.0068784,18.638533 14.9991618,18.5118214 C14.9988284,18.5054757 14.9986062,18.5001147 14.9986062,18.4954102 C14.9986062,17.2263764 14.3468269,16.1614677 13.4337558,15.4736732 L13.4456292,15.4551949 L13.4456292,15.4551949 L13.4572831,15.4359098 L13.9017321,14.6779088 L13.9436199,14.595664 C14.0124047,14.4351297 13.9912445,14.2983264 13.8801393,14.1852542 L13.8170913,14.1306956 L13.7390524,14.0800922 L13.6555266,14.0388469 C13.4653192,13.9598288 13.3079154,14.0013581 13.1833154,14.1634348 Z M9.88888725,17.3090164 C10.0264003,17.3884096 10.1111117,17.5351342 10.1111117,17.6939205 C10.1111117,17.9393829 9.91212515,18.1383695 9.66666275,18.1383695 C9.42120035,18.1383695 9.22221376,17.9393829 9.22221376,17.6939205 C9.22221376,17.5351342 9.30692525,17.3884096 9.44443825,17.3090164 C9.58195125,17.2296233 9.75137425,17.2296233 9.88888725,17.3090164 Z M12.3333567,17.2494716 C12.5788191,17.2494716 12.7778057,17.4484582 12.7778057,17.6939205 C12.7778057,17.9393829 12.5788191,18.1383695 12.3333567,18.1383695 C12.0878943,18.1383695 11.8889077,17.9393829 11.8889077,17.6939205 C11.8889077,17.4484582 12.0878943,17.2494716 12.3333567,17.2494716 Z M19.0000009,6 C19.5522866,6 20.0000009,6.44771525 20.0000009,7 L20.0000009,10 C20.0000009,10.5522847 19.5522866,11 19.0000009,11 L10.0000009,11 C9.44771615,11 9.00000086,10.5522847 9.00000086,10 L9.00000086,7 C9.00000086,6.44771525 9.44771615,6 10.0000009,6 L19.0000009,6 Z M15.2500013,7 L13.2500013,7 L13.2500013,10 L14.0000013,10 L14.0000013,8.782 L15.2500013,8.782 L15.3395761,8.77390672 C15.5431427,8.73669822 15.7046995,8.57514129 15.741908,8.37157476 L15.7500013,8.282 L15.7500013,7.5 L15.741908,7.41042524 C15.699384,7.17777778 15.4944459,7 15.2500013,7 Z M18.5000016,7 L16.5000016,7 L16.5000016,10 L17.2500016,10 L17.2500016,8.782 L18.5000016,8.782 L18.5895764,8.77390672 C18.793143,8.73669822 18.9546998,8.57514129 18.9919083,8.37157476 L19.0000016,8.282 L19.0000016,7.5 L18.9919083,7.41042524 C18.9493843,7.17777778 18.7444462,7 18.5000016,7 Z M12.000001,7 L10.500001,7 L10.4104262,7.00809328 C10.2068597,7.04530178 10.0453027,7.20685871 10.0080942,7.41042524 L10.000001,7.5 L10.000001,10 L10.750001,10 L10.750001,9.25 L11.7500011,9.25 L11.7500011,10 L12.500001,10 L12.500001,7.5 L12.4919077,7.41042524 C12.4493837,7.17777778 12.2444456,7 12.000001,7 Z M11.750001,7.75 L11.750001,8.5 L10.750001,8.5 L10.750001,7.75 L11.750001,7.75 Z M15.0000013,7.527 L15.0000013,8.184 L14.0000013,8.184 L14.0000013,7.527 L15.0000013,7.527 Z M18.2500016,7.527 L18.2500016,8.184 L17.2500016,8.184 L17.2500016,7.527 L18.2500016,7.527 Z" id="形状结合"></path>
      </g>
    </g>
  </g>
</svg>
