<svg xmlns="http://www.w3.org/2000/svg" viewBox="0 0 24 24" class="design-iconfont">
  <path d="M2.97971729,9.96779242 C2.52682962,10.4141054 1.79255348,10.4141054 1.33966581,9.96779242 C0.886778064,9.52147968 0.886778064,8.79786361 1.33966581,8.3515506 C7.2272057,2.54948313 16.7727936,2.54948313 22.6603346,8.3515506 C23.1132218,8.79786361 23.1132218,9.52147968 22.6603346,9.96779242 C22.2074451,10.4141054 21.4731708,10.4141054 21.0202813,9.96779242 C16.0385171,5.05835042 7.96148267,5.05835042 2.97971729,9.96779242 Z M6.25982012,13.2002837 C5.80693231,13.6465967 5.07265638,13.6465967 4.61976857,13.2002837 C4.1668809,12.7539712 4.1668809,12.0303546 4.61976857,11.5840421 C8.69575777,7.56722588 15.3042428,7.56722588 19.3802314,11.5840421 C19.8331198,12.0303546 19.8331198,12.7539712 19.3802314,13.2002837 C18.9273442,13.6465967 18.1930677,13.6465967 17.7401804,13.2002837 C14.5699663,10.0760937 9.43003425,10.0760937 6.25982012,13.2002837 Z M9.53992268,16.4327744 C9.08703542,16.8790879 8.35275894,16.8790879 7.89987168,16.4327744 C7.44698387,15.9864619 7.44698387,15.2628453 7.89987168,14.8165328 C10.1643102,12.5849684 13.8356898,12.5849684 16.1001283,14.8165328 C16.5530167,15.2628453 16.5530167,15.9864619 16.1001283,16.4327744 C15.6472411,16.8790879 14.9129646,16.8790879 14.4600773,16.4327744 C13.1014145,15.0938359 10.8985861,15.0938359 9.53992268,16.4327744 Z M12,17.7142887 L12.0115969,17.7142887 C12.6520774,17.7142887 13.1712884,18.2259621 13.1712884,18.8571443 C13.1712884,19.4883266 12.6520774,20 12.0115969,20 L12,20 C11.3595198,20 10.8403082,19.4883266 10.8403082,18.8571443 C10.8403082,18.2259621 11.3595198,17.7142887 12,17.7142887 Z" fill="#FFF" fill-rule="evenodd"/>
</svg>
