<svg xmlns="http://www.w3.org/2000/svg" viewBox="0 0 24 24" class="design-iconfont">
  <g fill="#FFF" fill-rule="evenodd">
    <path d="M1.97971727,5.96779242 C1.5268296,6.41410542 0.792553463,6.41410542 0.33966579,5.96779242 C-0.113221953,5.52147968 -0.113221953,4.79786361 0.33966579,4.3515506 C6.22720568,-1.45051687 15.7727935,-1.45051687 21.6603345,4.3515506 C22.1132218,4.79786361 22.1132218,5.52147968 21.6603345,5.96779242 C21.2074451,6.41410542 20.4731708,6.41410542 20.0202813,5.96779242 C15.0385171,1.05835042 6.96148265,1.05835042 1.97971727,5.96779242 Z" opacity=".2" transform="translate(1 4)"/>
    <path d="M5.25982011,9.20028368 C4.80693229,9.64659668 4.07265636,9.64659668 3.61976855,9.20028368 C3.16688088,8.75397121 3.16688088,8.0303546 3.61976855,7.58404213 C7.69575775,3.56722588 14.3042428,3.56722588 18.3802314,7.58404213 C18.8331198,8.0303546 18.8331198,8.75397121 18.3802314,9.20028368 C17.9273442,9.64659668 17.1930677,9.64659668 16.7401804,9.20028368 C13.5699663,6.07609371 8.43003423,6.07609371 5.25982011,9.20028368 Z" transform="translate(1 4)"/>
    <path d="M8.53992266,12.4327744 C8.0870354,12.8790879 7.35275892,12.8790879 6.89987166,12.4327744 C6.44698385,11.9864619 6.44698385,11.2628453 6.89987166,10.8165328 C9.16431016,8.58496835 12.8356898,8.58496835 15.1001283,10.8165328 C15.5530167,11.2628453 15.5530167,11.9864619 15.1001283,12.4327744 C14.6472411,12.8790879 13.9129646,12.8790879 13.4600773,12.4327744 C12.1014144,11.0938359 9.8985861,11.0938359 8.53992266,12.4327744 Z" transform="translate(1 4)"/>
    <path d="M11,13.7142887 L11.0115969,13.7142887 C11.6520773,13.7142887 12.1712884,14.2259621 12.1712884,14.8571443 C12.1712884,15.4883266 11.6520773,16 11.0115969,16 L11,16 C10.3595198,16 9.84030822,15.4883266 9.84030822,14.8571443 C9.84030822,14.2259621 10.3595198,13.7142887 11,13.7142887 Z" transform="translate(1 4)"/>
  </g>
</svg>
