<?xml version="1.0" encoding="UTF-8"?>
<svg width="24px" height="24px" viewBox="0 0 24 24" version="1.1" xmlns="http://www.w3.org/2000/svg" xmlns:xlink="http://www.w3.org/1999/xlink">
    <title>icon_语音-开</title>
    <g id="模式" stroke="none" stroke-width="1" fill="none" fill-rule="evenodd" stroke-linecap="round" stroke-linejoin="round">
        <g id="图标" transform="translate(-617.000000, -127.000000)" stroke="#FFFFFF" stroke-width="2">
            <g id="icon_语音-开" transform="translate(617.000000, 127.000000)">
                <path d="M16.000096,7.5 L16.000096,7.5 C16.312116,7.7784 16.594134,8.0904 16.8425499,8.4288 C17.5709965,9.4248 18.000624,10.6608 18.000624,12 C18.000624,13.3272 17.5769969,14.5536 16.8617512,15.5448 C16.609735,15.894 16.3205165,16.2156 16.000096,16.5 M17.1180876,20.59332 C20.0426747,18.84732 22,15.65292 22,12.00012 C22,8.40372 20.1026786,5.25132 17.2536962,3.48972 M12.00024,3 L12.00024,21 C8.49961598,21 5.89904954,16.4196 5.89904954,16.4196 L2.99966398,16.4196 C2.44762865,16.4196 2,15.972 2,15.42 L2,8.5056 C2,7.9524 2.44762865,7.5048 2.99966398,7.5048 L5.89904954,7.5048 C5.89904954,7.5048 8.49961598,3 12.00024,3 Z" id="形状结合"></path>
            </g>
        </g>
    </g>
</svg>