<?xml version="1.0" encoding="UTF-8"?>
<svg width="30px" height="30px" viewBox="0 0 30 30" version="1.1" xmlns="http://www.w3.org/2000/svg" xmlns:xlink="http://www.w3.org/1999/xlink">
    <title>导航栏_日程_off</title>
    <g id="new-菜谱列表+运行" stroke="none" stroke-width="1" fill="none" fill-rule="evenodd" stroke-linecap="round" stroke-linejoin="round">
        <g id="画板" transform="translate(-497.000000, -2165.000000)" stroke="#FFFFFF" stroke-width="2">
            <g id="icon_日程" transform="translate(497.000000, 2165.000000)">
                <path d="M9.52631579,2 L9.52631579,7.47368421 M2,12.2631579 L28,12.2631579 L28,26.6315789 C28,27.3873579 27.3873579,28 26.6315789,28 L3.36842105,28 C2.61266263,28 2,27.3873579 2,26.6315789 L2,12.2631579 Z M2,5.42105263 C2,4.66529421 2.61266263,4.05263158 3.36842105,4.05263158 L26.6315789,4.05263158 C27.3873579,4.05263158 28,4.66529421 28,5.42105263 L28,12.2631579 L2,12.2631579 L2,5.42105263 Z M20.4736842,2 L20.4736842,7.47368421 M17.7368421,22.5263158 L21.8421053,22.5263158 M8.15789474,22.5263158 L12.2631579,22.5263158 M17.7368421,17.0526316 L21.8421053,17.0526316 M8.15789474,17.0526316 L12.2631579,17.0526316" id="形状结合"></path>
            </g>
        </g>
    </g>
</svg>