<?xml version="1.0" encoding="UTF-8"?>
<svg width="30px" height="30px" viewBox="0 0 30 30" version="1.1" xmlns="http://www.w3.org/2000/svg" xmlns:xlink="http://www.w3.org/1999/xlink">
    <title>导航栏_固定_off</title>
    <g id="new-菜谱列表+运行" stroke="none" stroke-width="1" fill="none" fill-rule="evenodd" stroke-linejoin="round">
        <g id="画板" transform="translate(-761.000000, -2165.000000)" fill-rule="nonzero" stroke="#FFFFFF" stroke-width="2">
            <g id="icon_固定" transform="translate(761.000000, 2165.000000)">
                <path d="M3.29880483,28 L3.28941602,28 C2.95033948,27.9982499 2.62605096,27.8609471 2.38881446,27.6186881 C1.92596378,27.169392 1.86934482,26.4460636 2.25664919,25.9302273 L7.90220057,18.1523305 L3.67002312,13.9189014 C3.25283638,13.5035458 3.16855154,12.8589743 3.46491417,12.3503228 C3.92812535,11.6899739 4.55134865,11.1579721 5.27622834,10.8041317 C5.99166371,10.4559616 6.77720864,10.2758873 7.57287072,10.2776613 C8.16969664,10.2776985 8.76250439,10.3752756 9.32785216,10.566534 L9.54451653,10.5889216 C9.74023667,10.602643 9.91356817,10.622142 10.0760665,10.6481405 C11.4083665,10.5627087 12.6636596,9.99389785 13.6062514,9.04850806 C14.634357,8.32101166 15.3431748,7.22589791 15.5858415,5.99006858 C15.5858415,5.79363515 15.5858415,5.5870912 15.5778972,5.39210214 C15.316903,4.51200866 15.5161196,3.55966641 16.1080027,2.85796661 C16.6507862,2.30680161 17.3927392,1.99753843 18.1663143,2 C18.8337622,2.000581 19.4805179,2.23171863 19.9971282,2.65431137 L20.0635719,2.72002989 C20.7027318,3.34399487 27.0798866,9.72519229 27.1412749,9.78657776 C27.6929686,10.3346833 28.0022201,11.0808584 28,11.858517 C28,12.6372939 27.6878036,13.3835732 27.1333305,13.9304563 C26.6994436,14.3137332 26.136172,14.5179163 25.5574583,14.501702 C25.2142376,14.4938557 24.8721171,14.4598142 24.5340802,14.3998744 C24.3570925,14.3896299 24.1798023,14.3855351 24.0025303,14.3875973 L23.9519753,14.3875973 C22.901791,14.5199558 21.9500055,15.072034 21.3137254,15.9179003 C20.2256163,17.0079883 19.5195018,18.420913 19.3009133,19.9455076 C19.3319686,20.2112705 19.3875791,20.6676893 19.3976901,20.7283526 C20.0806078,22.8148181 19.2876424,25.1005462 17.4592662,26.3158723 C17.2544453,26.442563 17.0183349,26.5095913 16.7774956,26.509417 C16.4333929,26.5105815 16.1031218,26.3740584 15.8602831,26.1302716 L11.6772162,21.9416178 L4.05135242,27.7385703 C3.8365363,27.9069347 3.57174068,27.9989228 3.29880483,28 Z" id="路径"></path>
            </g>
        </g>
    </g>
</svg>