<?xml version="1.0" encoding="UTF-8"?>
<svg width="30px" height="30px" viewBox="0 0 30 30" version="1.1" xmlns="http://www.w3.org/2000/svg" xmlns:xlink="http://www.w3.org/1999/xlink">
    <title>导航栏_日程_on</title>
    <g id="new-菜谱列表+运行" stroke="none" stroke-width="1" fill="none" fill-rule="evenodd">
        <g id="画板" transform="translate(-497.000000, -2023.000000)">
            <g id="导航栏_日程_on" transform="translate(497.000000, 2023.000000)">
                <g id="编组" transform="translate(2.000000, 2.000000)">
                    <path d="M26,9.57894737 L26,24.6315789 C26,25.3873579 25.3873579,26 24.6315789,26 L1.36842105,26 C0.612662632,26 0,25.3873579 0,24.6315789 L0,9.57894737 L26,9.57894737 Z M20.549212,12.9771037 C20.1586878,12.5865795 19.5255228,12.5865795 19.1349985,12.9771037 L19.1349985,12.9771037 L11.631,20.48 L8.23342257,17.0823669 L8.13921523,16.9991783 C7.74692403,16.6941534 7.17969297,16.7218829 6.81920901,17.0823669 C6.42868472,17.4728912 6.42868472,18.1060562 6.81920901,18.4965805 L6.81920901,18.4965805 L10.9244722,22.6018436 L11.0186795,22.6850322 C11.4109707,22.9900571 11.9782018,22.9623276 12.3386857,22.6018436 L12.3386857,22.6018436 L20.549212,14.3913173 L20.6324007,14.29711 C20.9374255,13.9048188 20.909696,13.3375877 20.549212,12.9771037 Z" id="形状结合" fill="#F7D58F" fill-rule="nonzero"></path>
                    <rect id="矩形" stroke="#F7D58F" stroke-width="2" x="0" y="2" width="26" height="24" rx="2"></rect>
                    <line x1="7.52631579" y1="0" x2="7.52631579" y2="5.47368421" id="路径" stroke="#F7D58F" stroke-width="2" stroke-linecap="round"></line>
                    <line x1="18.4736842" y1="0" x2="18.4736842" y2="5.47368421" id="路径" stroke="#F7D58F" stroke-width="2" stroke-linecap="round"></line>
                </g>
            </g>
        </g>
    </g>
</svg>