<?xml version="1.0" encoding="UTF-8"?>
<svg width="20px" height="20px" viewBox="0 0 20 20" version="1.1" xmlns="http://www.w3.org/2000/svg" xmlns:xlink="http://www.w3.org/1999/xlink">
    <title>icon_份量</title>
    <g id="模式" stroke="none" stroke-width="1" fill="none" fill-rule="evenodd" stroke-linecap="round" stroke-linejoin="round">
        <g id="图标" transform="translate(-159.000000, -367.000000)" stroke="#FFFFFF" stroke-width="1.77777778">
            <g id="icon_份量" transform="translate(159.000000, 367.000000)">
                <path d="M18,8.91891892 C18,13.2172973 14.4177778,16.7027027 10,16.7027027 C5.58222222,16.7027027 2,13.2172973 2,8.91891892 L18,8.91891892 Z M15.7777778,7.62162162 C15.7777778,8.07135135 15.7235556,8.50378378 15.6177778,8.91891892 L4.38222222,8.91891892 C4.27644444,8.50378378 4.22222222,8.07135135 4.22222222,7.62162162 C4.22222222,4.51675676 6.80888889,2 10,2 C13.1911111,2 15.7777778,4.51675676 15.7777778,7.62162162 Z M7.33333333,17.5675676 L12.6666667,17.5675676 M12.799222,6.34834835 L13.1346591,6.34834835 M10.8888889,4.72716151 L10.8888889,5.06021656" id="形状结合"></path>
            </g>
        </g>
    </g>
</svg>