<?xml version="1.0" encoding="UTF-8"?>
<svg width="30px" height="30px" viewBox="0 0 30 30" version="1.1" xmlns="http://www.w3.org/2000/svg" xmlns:xlink="http://www.w3.org/1999/xlink">
    <title>icon_finish</title>
    <g id="首页" stroke="none" stroke-width="1" fill="none" fill-rule="evenodd" stroke-linecap="round" stroke-linejoin="round">
        <g id="预设编辑" transform="translate(-353.000000, -50.000000)" stroke="#FFFFFF" stroke-width="2">
            <g id="button_finish" transform="translate(343.000000, 40.000000)">
                <g id="icon_finish" transform="translate(10.000000, 10.000000)">
                    <path d="M9.8,15 L13.7,18.9 L21.5,11.1 M15,28 C18.58982,28 21.83982,26.54491 24.192365,24.192365 C26.54491,21.83982 28,18.58982 28,15 C28,11.41018 26.54491,8.16018 24.192365,5.807609 C21.83982,3.455077 18.58982,2 15,2 C11.41018,2 8.16018,3.455077 5.807609,5.807609 C3.455077,8.16018 2,11.41018 2,15 C2,18.58982 3.455077,21.83982 5.807609,24.192365 C8.16018,26.54491 11.41018,28 15,28 Z" id="形状结合"></path>
                </g>
            </g>
        </g>
    </g>
</svg>