<?xml version="1.0" encoding="UTF-8"?>
<svg width="24px" height="24px" viewBox="0 0 24 24" version="1.1" xmlns="http://www.w3.org/2000/svg" xmlns:xlink="http://www.w3.org/1999/xlink">
    <title>icon_更多操作</title>
    <g id="菜谱2" stroke="none" stroke-width="1" fill="none" fill-rule="evenodd" stroke-linejoin="round">
        <g id="步骤1/运行页" transform="translate(-950.000000, -100.000000)" stroke="#FFFFFF" stroke-width="2">
            <g id="button_更多操作" transform="translate(940.000000, 90.000000)">
                <g id="icon_更多操作" transform="translate(10.000000, 10.000000)">
                    <path d="M9,14 C9.55228475,14 10,14.4477153 10,15 L10,21 C10,21.5522847 9.55228475,22 9,22 L3,22 C2.44771525,22 2,21.5522847 2,21 L2,15 C2,14.4477153 2.44771525,14 3,14 L9,14 Z M21,14 C21.5522847,14 22,14.4477153 22,15 L22,21 C22,21.5522847 21.5522847,22 21,22 L15,22 C14.4477153,22 14,21.5522847 14,21 L14,15 C14,14.4477153 14.4477153,14 15,14 L21,14 Z M9,2 C9.55228475,2 10,2.44771525 10,3 L10,9 C10,9.55228475 9.55228475,10 9,10 L3,10 C2.44771525,10 2,9.55228475 2,9 L2,3 C2,2.44771525 2.44771525,2 3,2 L9,2 Z M21,2 C21.5522847,2 22,2.44771525 22,3 L22,9 C22,9.55228475 21.5522847,10 21,10 L15,10 C14.4477153,10 14,9.55228475 14,9 L14,3 C14,2.44771525 14.4477153,2 15,2 L21,2 Z" id="形状结合"></path>
                </g>
            </g>
        </g>
    </g>
</svg>