<?xml version="1.0" encoding="UTF-8"?>
<svg width="28px" height="28px" viewBox="0 0 28 28" version="1.1" xmlns="http://www.w3.org/2000/svg" xmlns:xlink="http://www.w3.org/1999/xlink">
    <title>icon_home_off</title>
    <g id="模式" stroke="none" stroke-width="1" fill="none" fill-rule="evenodd">
        <g id="图标" transform="translate(-91.000000, -198.000000)" fill="#8B8F93">
            <g id="icon_home_off" transform="translate(91.000000, 198.000000)">
                <path d="M21.1752887,21.320425 C19.6373887,23.192925 16.9553387,24.310475 13.9999387,24.310475 C11.0445387,24.310475 8.36248867,23.192925 6.82458867,21.320425 C6.33388867,20.722975 6.42068867,19.840625 7.01813867,19.349925 C7.61593867,18.859575 8.49793867,18.946375 8.98863867,19.543475 C9.98508867,20.756925 11.9051887,21.510475 13.9999387,21.510475 C16.0946887,21.510475 18.0147887,20.756925 19.0112387,19.543475 C19.5022887,18.946025 20.3846387,18.858875 20.9817387,19.349925 C21.5791887,19.840625 21.6659887,20.722975 21.1752887,21.320425 M27.7122387,11.262475 L15.5255887,0.574175 C14.6526887,-0.191275 13.3475387,-0.191275 12.4746387,0.574175 L0.287638674,11.262475 C-0.294761326,11.773475 0.0664386737,12.733525 0.841338674,12.733525 L2.57138867,12.733525 L2.57138867,26.599825 C2.57138867,27.372975 3.19823867,27.999825 3.97138867,27.999825 L24.0284887,27.999825 C24.8016387,27.999825 25.4284887,27.372975 25.4284887,26.599825 L25.4284887,12.733525 L27.1585387,12.733525 C27.9334387,12.733525 28.2946387,11.773475 27.7122387,11.262475" id="Fill-1"></path>
            </g>
        </g>
    </g>
</svg>