<?xml version="1.0" encoding="UTF-8"?>
<svg width="20px" height="20px" viewBox="0 0 20 20" version="1.1" xmlns="http://www.w3.org/2000/svg" xmlns:xlink="http://www.w3.org/1999/xlink">
    <title>icon_more</title>
    <g id="菜谱2" stroke="none" stroke-width="1" fill="none" fill-rule="evenodd">
        <g id="步骤1/火力调整" transform="translate(-353.000000, -176.000000)" fill="#FFFFFF" fill-rule="nonzero">
            <g id="首页/功能/激活" transform="translate(40.000000, 154.000000)">
                <g id="icon_more" transform="translate(313.000000, 22.000000)">
                    <path d="M5.43552817,20 L5.43552823,20 C5.05458482,20.0050007 4.68835404,19.8528103 4.4230197,19.5791188 L4.42301973,19.5791188 C3.86382683,19.0260941 3.85832624,18.1239535 4.41073484,17.5641355 C4.41480475,17.560011 4.41889977,17.5559114 4.42301965,17.551837 L11.9690692,9.99735254 L4.42301965,2.44286809 L4.42301968,2.44286812 C3.86382679,1.88984338 3.8583262,0.98770279 4.41073479,0.427884831 C4.41480471,0.423760319 4.41889972,0.419660726 4.4230196,0.415586287 L4.42301954,0.415586347 C4.98456051,-0.138528762 5.88649565,-0.138528762 6.44803662,0.415586227 L16,9.97822676 L6.44803662,19.5408673 L6.44803661,19.5408673 C6.18728974,19.8258477 5.82147582,19.9916853 5.43552807,20 L5.43552817,20 Z" id="路径"></path>
                </g>
            </g>
        </g>
    </g>
</svg>