<svg xmlns="http://www.w3.org/2000/svg" viewBox="0 0 230 170" class="design-iconfont">
  <g fill="none" fill-rule="evenodd">
    <path d="M227.545326,144.839347 L227.545326,144.841607 C227.362294,144.999795 227.170223,145.151204 226.971372,145.293573 C223.65419,147.668654 221.38775,149.334149 217.306801,150.199664 C209.623953,151.826741 201.913311,153.317551 194.174649,154.671867 C179.077852,157.315868 163.900386,159.452086 148.642475,161.080745 C117.673818,164.401339 86.5126374,165.579163 55.3817364,164.60608 C45.0144106,164.282924 35.0154096,163.93943 25.5157938,159.363274 C18.5718548,156.018726 12.7374094,150.732984 8.38078256,144.40998 C3.96314483,137.998842 1.27640761,130.412593 0.361244809,122.61618 C2.51221635,121.677221 4.79763773,121.082433 7.13344955,120.853513 C15.2411141,120.080651 23.2199779,123.050067 30.5932526,126.505347 C37.9687869,129.958367 45.2110011,133.994424 53.196644,135.587604 C64.9649597,137.935567 77.1128986,134.742427 88.3953871,130.654395 C99.6778757,126.566363 110.784111,121.517903 122.683487,119.974439 C138.643474,117.902175 154.657693,122.288505 170.15445,126.631898 C186.661276,131.257769 203.168779,135.884319 219.677186,140.511773 C222.036272,141.171643 224.483485,141.87897 226.32285,143.497008 C226.778849,143.897676 227.188978,144.347834 227.545326,144.839347" fill="#61696F" transform="translate(.223349)"/>
    <path d="M227.545326,144.839347 L227.545326,144.841607 C227.362294,144.999795 227.170223,145.151204 226.971372,145.293573 C224.892484,146.780541 223.227114,147.99181 221.270247,148.900262 C214.543236,149.562392 207.807185,150.135711 201.062097,150.619992 C183.701119,151.865159 166.306247,152.527289 148.87748,152.606383 C113.52056,152.787169 76.3468734,153.894486 45.3895144,136.719778 C35.0886226,131.005121 20.1671756,142.724147 9.96254543,136.457638 C7.02114439,134.645255 4.28785815,132.515139 1.81194733,130.105256 C1.14331357,127.648369 0.658390262,125.145156 0.361244809,122.61618 C-0.457882391,115.78494 0.119461056,108.858561 2.0582504,102.257372 C2.99623578,99.0994857 4.27610791,96.0532349 5.87481824,93.1728557 C10.6155875,94.8745077 15.1620259,97.3241633 19.4892772,99.9184481 C27.4252075,104.67087 35.1419506,110.067344 43.9794858,112.788179 C57.0064328,116.799378 71.09994,114.593784 84.3189583,111.276353 C97.5379765,107.958923 110.668868,103.538696 124.292366,103.165824 C142.563986,102.666401 160.15093,109.470749 177.1594,116.166625 C194.222102,122.8851 211.287064,129.602896 228.354285,136.319789 C228.729389,137.338972 229.064497,138.373296 229.359834,139.422535 C229.963164,141.555814 229.088675,143.487969 227.545326,144.839347" fill="#A9AEB3" transform="translate(.223349)"/>
    <path d="M61.1817445,58.0837307 C58.6118318,56.3511191 58.863332,52.5604804 61.5810266,51.0703485 C61.6361624,51.0400668 61.6903942,51.0086551 61.7434963,50.9763396 C61.8797538,50.3241527 62.0160114,49.6717398 62.152269,49.0193269 C62.9539968,49.8520742 64.5303365,49.695016 65.1519693,48.7203514 C62.9847282,44.0971913 60.1348434,39.8263387 56.6981246,36.0503889 C55.1475451,34.3387937 55.1195253,31.7386334 56.6323685,29.9938187 C56.6457005,29.9784519 56.6585806,29.963085 56.6714606,29.9474922 C58.6122837,29.2919155 60.4500662,28.3638034 62.1296724,27.1911776 C56.3697959,17.9362701 45.3864864,10.5839135 42.7758998,0 C34.9219952,8.43481521 34.0405014,11.4053616 26.1865968,19.8401769 C26.1865968,19.8401769 18.7498257,26.5511938 17.1447883,30.1578824 C17.5390992,30.5721092 21.0700458,31.5664343 21.2058515,32.381103 C23.8986898,32.5969168 28.5637604,29.6451269 28.5637604,29.6451269 C28.5637604,29.6451269 18.3812749,40.5015759 15.2898324,47.1886386 C15.0114421,47.7908833 14.7470618,48.4783236 14.9802588,49.0995508 C15.1664549,49.5953575 15.8344107,49.881226 16.2646502,49.6841688 C15.7505773,50.1799755 15.3379632,50.7706951 15.0496304,51.4240119 C16.8964515,52.6034171 19.3113515,52.3600334 20.8858835,50.8362301 C20.455418,51.6407296 20.0247266,52.445229 19.5940351,53.2497285 L19.594939,53.2517623 C21.4415341,53.8551369 22.4493431,55.8413014 21.8457875,57.6880345 C21.6607213,58.2543478 21.3348781,58.7643915 20.8989895,59.1702569 C18.2269401,61.6556179 15.7853761,64.2679813 14.8905502,65.9883898 C14.0490524,67.60688 22.6906749,69.5577912 24.6344355,69.4777932 C26.5781961,69.3977952 28.3951897,68.5438055 30.1507205,67.7054086 C30.0650793,68.5060663 30.2182844,69.3139555 30.5909025,70.0276098 C32.5330814,70.4990103 34.583272,70.1674933 36.2780179,69.108085 C36.2005116,70.7091745 38.2199708,71.59322 39.6216387,71.1398981 C38.9220476,82.2108049 39.4338608,97.7568529 40.10611,113.895428 L41.773966,113.895428 L41.773966,71.7780741 C42.2179894,72.0031531 42.6927443,72.1608893 43.1828648,72.2465368 C46.5954052,72.8521712 50.7134118,73.2205235 52.9339809,70.5593478 C55.4896578,73.1364578 60.1732577,73.0876455 62.7142467,70.5193488 C62.4641022,70.9625014 62.8468889,71.7080193 63.41316,71.8255305 C64.0804379,71.9640581 64.7294126,71.5674579 65.2961357,71.1887104 C67.8606252,69.4739515 70.4253407,67.7591925 72.9898303,66.0446596 C69.8251747,63.9109281 65.3293527,60.8800442 61.1817445,58.0837307" fill="#E6E6E6" transform="translate(.223349)"/>
    <path d="M138.168267,36.8234993 C142.615959,36.8234993 146.2217,40.4295099 146.2217,44.8775332 C146.2217,49.3255564 142.615959,52.931567 138.168267,52.931567 C133.720576,52.931567 130.114835,49.3255564 130.114835,44.8775332 C130.114835,40.4295099 133.720576,36.8234993 138.168267,36.8234993" fill="#F2F2F2" transform="translate(.223349)"/>
    <path d="M156.193721,41.064251 C155.728005,39.5038384 154.411978,38.485333 152.821854,38.2618359 C152.804455,38.25935 152.787733,38.2625138 152.770334,38.2613839 C152.747737,38.2546044 152.724915,38.2491808 152.70164,38.2455651 C150.44921,37.9709957 148.170116,38.4672544 146.235394,39.6532131 C144.371399,40.8170256 142.199639,41.3433399 140.0037,41.4289875 C139.99082,41.4294395 139.977714,41.4301174 139.964834,41.4305694 C138.292684,41.542205 136.86955,42.6892947 136.405641,44.2996495 C136.356155,44.4971586 136.440214,44.703933 136.61353,44.810597 C136.856896,45.0169195 137.145002,45.1631305 137.455028,45.2377049 C138.123888,45.3793962 138.795007,45.5093364 139.468612,45.6272995 C140.783057,45.8573502 142.104281,46.0433342 143.43251,46.1852516 C146.128512,46.4740578 148.841235,46.5766541 151.551473,46.4921365 C152.454207,46.4638886 153.324629,46.4340588 154.151665,46.0356508 C154.753187,45.7384832 155.26726,45.289681 155.643267,44.7337628 C156.360032,43.6522082 156.561594,42.3087393 156.193721,41.064251" fill="#E6E6E6" transform="translate(.223349)"/>
    <path d="M139.455235,51.8029854 C138.989293,50.2425728 137.673492,49.2240675 136.083368,49.0005703 C136.065743,48.9980845 136.049247,49.0012482 136.031848,49.0001183 C136.009251,48.9933388 135.986429,48.9879152 135.963154,48.9842995 C133.710724,48.7097302 131.43163,49.2059888 129.496908,50.3919476 C127.632913,51.55576 125.461153,52.0823003 123.26544,52.1677219 C123.252334,52.1681739 123.239228,52.1688518 123.226348,52.1693038 C121.554199,52.2809394 120.131064,53.4280291 119.667155,55.0383839 C119.617669,55.235893 119.701728,55.4426675 119.875044,55.5493314 C120.11841,55.7554279 120.406517,55.9018649 120.716542,55.9764393 C121.385402,56.1181306 122.056521,56.2480708 122.730126,56.366034 C124.044571,56.5960846 125.365795,56.7820686 126.694024,56.923986 C129.390026,57.2127922 132.102749,57.3153885 134.812987,57.2308709 C135.715721,57.202623 136.586143,57.1727932 137.413179,56.7743852 C138.014701,56.4769916 138.528774,56.0284154 138.904781,55.4724972 C139.621546,54.3909426 139.823108,53.0474737 139.455235,51.8029854" fill="#E6E6E6" transform="translate(.223349)"/>
    <path d="M207.607793,85.4276728 C205.03788,83.6950612 205.289381,79.9044225 208.007075,78.4142906 C208.062211,78.3840089 208.116443,78.3525973 208.169771,78.3202817 C208.305802,77.6680948 208.44206,77.0156819 208.578317,76.363269 C209.380045,77.1960163 210.956385,77.0389581 211.578018,76.0642935 C209.410777,71.4411334 206.561118,67.1702808 203.124173,63.394331 C201.57382,61.6827358 201.545574,59.0825755 203.058643,57.3377608 C203.071749,57.322394 203.084629,57.3068012 203.097509,57.2914343 C205.038332,56.6358577 206.876115,55.7077455 208.555721,54.5351198 C202.795844,45.2802123 191.812535,37.9278556 189.201948,27.3439421 C181.348044,35.7787573 180.46655,38.7493038 172.612645,47.184119 C172.612645,47.184119 165.175874,53.8951359 163.570837,57.5018245 C163.965148,57.9160513 167.496094,58.9103765 167.6319,59.7250452 C170.324738,59.9408589 174.989809,56.9890691 174.989809,56.9890691 C174.989809,56.9890691 164.807323,67.845518 161.715881,74.5325808 C161.437491,75.1348254 161.17311,75.8222657 161.406307,76.443493 C161.592503,76.9392996 162.260459,77.2251681 162.690699,77.028111 C162.176852,77.5239176 161.764012,78.1146372 161.475679,78.767954 C163.3225,79.9473593 165.7374,79.7039756 167.311932,78.1801723 C166.881466,78.9846717 166.450775,79.7891712 166.020084,80.5936706 L166.020987,80.5957045 C167.867583,81.1990791 168.875392,83.1852436 168.271836,85.0319766 C168.08677,85.59829 167.761153,86.1083336 167.325038,86.514199 C164.652989,88.99956 162.211425,91.6119234 161.316599,93.3323319 C160.475101,94.9508221 169.116949,96.9017333 171.06071,96.8217353 C173.004471,96.7417373 174.821238,95.8875216 176.576769,95.0493507 C176.491128,95.8500084 176.644333,96.6578976 177.016951,97.3715519 C178.95913,97.8429525 181.00932,97.5114354 182.704066,96.4520271 C182.626786,98.0531166 184.646019,98.9371621 186.047687,98.4838402 C185.348096,109.554747 185.859909,125.100795 186.532159,141.23937 L188.200014,141.23937 L188.200014,99.1220162 C188.644038,99.3470953 189.118793,99.5048314 189.608913,99.5904789 C193.021454,100.196113 197.13946,100.564466 199.360029,97.9032899 C201.915706,100.4804 206.599306,100.431588 209.140295,97.8632909 C208.890151,98.3064436 209.272937,99.0519615 209.839208,99.1694726 C210.506486,99.3080002 211.155687,98.9114 211.722184,98.5326525 L219.416105,93.3886017 C216.251223,91.2548703 211.755401,88.2239864 207.607793,85.4276728" fill="#E6E6E6" transform="translate(.223349)"/>
    <path d="M14.0105252,128.362385 C14.4608757,128.383175 14.8429844,128.03471 14.8635473,127.5841 C14.8746196,127.343654 14.779036,127.110665 14.6023305,126.947054 C14.5817675,126.865248 14.5668538,126.806492 14.5462909,126.724686 C14.5537477,126.706834 14.5609787,126.688981 14.5684355,126.671354 C15.0407047,125.556128 16.3273558,125.034785 17.4424987,125.506864 C17.9721633,125.731265 18.3926862,126.154757 18.6130032,126.686269 C19.274406,128.279675 20.1165818,129.875567 20.3240187,131.56027 C20.415309,132.304884 20.3768948,133.059893 20.2101318,133.791174 C21.7638748,130.401882 22.5705739,126.718133 22.5757711,122.989639 C22.576223,122.053844 22.5242508,121.118952 22.4200805,120.189258 C22.3342133,119.426791 22.2149032,118.669974 22.0621501,117.918581 C21.2294649,113.841622 19.441621,110.020249 16.8452702,106.768354 C15.5886726,106.082722 14.5725029,105.028285 13.9336967,103.747188 C13.7023074,103.286634 13.5387079,102.795121 13.4478695,102.287789 C13.5897762,102.30632 13.7337167,102.317845 13.8756234,102.32711 C13.9196868,102.329596 13.9662358,102.331856 14.0102992,102.334116 L14.0270207,102.33502 C14.4733038,102.354906 14.8513451,102.009378 14.8714561,101.563062 C14.8802688,101.365101 14.8160944,101.170755 14.6913611,101.016861 C14.6301243,100.941609 14.5688875,100.866356 14.5076506,100.791104 C14.4145526,100.674949 14.3194209,100.561053 14.2265488,100.444898 C14.2157024,100.433825 14.2055339,100.422074 14.1962693,100.409871 C14.0893873,100.277445 13.9825054,100.147278 13.8756234,100.014852 C14.0706322,99.7120352 14.3332048,99.4582563 14.6423265,99.2736282 C15.7136319,98.6460734 17.1916763,99.0806387 17.9653843,100.049654 C18.7415779,101.018895 18.888004,102.378409 18.6184264,103.588999 C18.3533681,104.619256 17.9147679,105.597084 17.3218328,106.48 C17.3799061,106.554574 17.440239,106.626437 17.4983123,106.700785 C18.5603531,108.066626 19.4859103,109.53303 20.261878,111.079206 C20.0731963,109.347046 20.2982585,107.594774 20.9189875,105.966566 C21.5478512,104.449091 22.7269424,103.171157 23.7650308,101.859326 C25.0119119,100.283546 27.5691705,100.971212 27.7888096,102.968676 C27.7908433,102.988111 27.793103,103.007319 27.7951366,103.026754 C27.6408018,103.113757 27.4898564,103.205958 27.3423005,103.303809 C26.8336508,103.643461 26.6967153,104.331354 27.0365684,104.840041 C27.2089805,105.098114 27.4819476,105.271895 27.7888096,105.319351 L27.8114062,105.322741 C27.7562705,105.878659 27.659331,106.42938 27.5208138,106.970383 C26.7098214,110.024091 24.6625683,112.601201 21.8716607,114.081842 C21.7810483,114.128168 21.6926955,114.174721 21.6020831,114.219013 C22.0180867,115.390735 22.3502569,116.590705 22.596786,117.809431 C22.8171029,118.884206 22.9707599,119.971636 23.056853,121.065168 C23.1621532,122.443212 23.1560521,123.827358 23.0383238,125.204273 L23.0451028,125.15546 C23.3427001,123.624426 24.1593417,122.242766 25.3574141,121.244147 C27.1366714,119.782489 29.6505445,119.244197 31.5701267,118.069086 C32.1610281,117.689886 32.9473902,117.861181 33.3265614,118.452127 C33.489031,118.705228 33.5565949,119.007593 33.5170508,119.305891 C33.5145652,119.323065 33.5118536,119.340014 33.509142,119.357189 C33.2230689,119.473796 32.9444527,119.60803 32.6748751,119.759212 C32.5207662,119.846216 32.3698208,119.938643 32.222039,120.036268 C31.7136152,120.37592 31.5766797,121.063812 31.9165328,121.5725 C32.0889449,121.830573 32.361912,122.004579 32.668548,122.05181 L32.6911447,122.0552 C32.7074142,122.057685 32.7214241,122.059945 32.7376937,122.062205 C32.248703,123.229859 31.5624439,124.304408 30.7089698,125.239074 C28.5781093,127.525796 25.5989719,128.833108 22.4736344,128.852768 L22.4711488,128.852768 C22.0515297,130.677129 21.4432289,132.452903 20.6564149,134.151391 L14.1729948,134.151391 C14.1497203,134.079529 14.1289314,134.004954 14.1079166,133.933092 C14.7080826,133.970831 15.3105083,133.9349 15.9018616,133.826202 C15.4207798,133.235708 14.9399238,132.640921 14.458842,132.050653 C14.4479956,132.03958 14.4380531,132.027829 14.4285625,132.015852 C14.1845191,131.713713 13.938216,131.413833 13.6943986,131.111694 L13.6941726,131.111468 C13.6810666,130.18539 13.7874966,129.261345 14.0102992,128.362385 L14.0105252,128.362385 Z" fill="#E6E6E6" transform="translate(.223349)"/>
    <path d="M207.211561,134.689909 C207.661912,134.710699 208.044021,134.362233 208.064583,133.911623 C208.075656,133.671177 207.980072,133.438189 207.803367,133.274577 C207.782804,133.192771 207.76789,133.134016 207.747327,133.05221 C207.754784,133.034357 207.762015,133.016505 207.769472,132.998878 C208.241741,131.883652 209.528392,131.362309 210.643535,131.834614 C211.173199,132.058789 211.593722,132.482281 211.814039,133.013793 C212.475442,134.607199 213.317618,136.203091 213.525055,137.887794 C213.616345,138.632408 213.577931,139.387417 213.411168,140.118698 C214.964911,136.729405 215.77161,133.045657 215.776807,129.317163 C215.777259,128.381368 215.725287,127.446476 215.621117,126.516782 C215.53525,125.754315 215.415939,124.997498 215.263186,124.246105 C214.430501,120.169146 212.642657,116.347773 210.046306,113.095878 C208.789935,112.410246 207.773539,111.355809 207.134733,110.074711 C206.903344,109.614158 206.739744,109.122645 206.649132,108.615313 C206.790812,108.633844 206.934979,108.645369 207.07666,108.654634 C207.120723,108.65712 207.167272,108.65938 207.211335,108.66164 L207.228057,108.662544 C207.67434,108.68243 208.052381,108.336902 208.072492,107.890586 C208.081305,107.692625 208.017357,107.498279 207.892397,107.344385 C207.83116,107.269132 207.769924,107.19388 207.708687,107.118628 C207.615815,107.002473 207.520457,106.888577 207.427585,106.772422 C207.416739,106.761349 207.406796,106.749598 207.397306,106.737394 C207.290424,106.604968 207.183542,106.474802 207.07666,106.342376 C207.271668,106.039559 207.534241,105.78578 207.843589,105.601152 C208.914668,104.973597 210.392712,105.408163 211.16642,106.377178 C211.942614,107.346419 212.08904,108.705932 211.819463,109.916523 C211.554404,110.94678 211.11603,111.924608 210.522869,112.807524 C210.580942,112.882098 210.641275,112.953961 210.699348,113.028309 C211.761389,114.39415 212.686947,115.860554 213.462914,117.40673 C213.274232,115.67457 213.499521,113.922298 214.120024,112.29409 C214.749113,110.776614 215.927979,109.498681 216.966067,108.186849 C218.213174,106.61107 220.770207,107.298736 220.989846,109.2962 C220.992105,109.315634 220.994139,109.334843 220.996173,109.354278 C220.841838,109.441281 220.690893,109.533482 220.543337,109.631333 C220.034687,109.970985 219.897977,110.658877 220.237605,111.167565 C220.410243,111.425638 220.682984,111.599419 220.989846,111.646875 L221.012442,111.650265 C220.957533,112.206183 220.860367,112.756903 220.72185,113.297907 C219.911084,116.351615 217.86383,118.928725 215.072697,120.409366 C214.982084,120.455692 214.893958,120.502245 214.803119,120.546311 C215.582702,122.755747 216.071693,125.057158 216.257889,127.392692 C216.363189,128.770736 216.357088,130.154882 216.23936,131.531796 L216.246365,131.482984 C216.543736,129.951949 217.360378,128.570289 218.55845,127.571671 C220.337708,126.110013 222.851581,125.571721 224.771389,124.396609 C225.362064,124.01741 226.148426,124.188705 226.527598,124.779651 C226.690067,125.032752 226.757631,125.335117 226.718087,125.633414 C226.715601,125.650589 226.71289,125.667538 226.710404,125.684713 C226.424105,125.80132 226.145489,125.935554 225.876137,126.086736 C225.721802,126.17374 225.570857,126.266167 225.423301,126.363791 C224.914651,126.703444 224.777942,127.391336 225.117569,127.900024 C225.289981,128.158096 225.562948,128.332103 225.86981,128.379334 L225.892407,128.382723 C225.908676,128.385209 225.92246,128.387469 225.93873,128.389729 C225.449965,129.557383 224.763706,130.631932 223.910232,131.566598 C221.779145,133.85332 218.800008,135.160631 215.674671,135.180292 L215.672411,135.180292 C215.252566,137.004653 214.644265,138.780427 213.857451,140.478915 L207.374031,140.478915 C207.350756,140.407053 207.329968,140.332478 207.308953,140.260616 C207.909119,140.298355 208.511544,140.262423 209.102898,140.153726 C208.622042,139.563232 208.14096,138.968445 207.659878,138.378177 C207.649258,138.367104 207.639089,138.355353 207.629825,138.343376 C207.385781,138.041237 207.139478,137.741357 206.895435,137.439218 L206.895209,137.438992 C206.882329,136.512914 206.988533,135.588869 207.211561,134.689909 Z" fill="#E6E6E6" transform="translate(.223349)"/>
    <path d="M130.157113,115.93332 C130.607463,115.954111 130.989572,115.605645 131.010135,115.155035 C131.021207,114.914589 130.925624,114.681601 130.748918,114.517989 C130.728355,114.436183 130.713442,114.377427 130.692879,114.295622 C130.700336,114.277769 130.707566,114.259916 130.715023,114.24229 C131.187293,113.127064 132.473944,112.605721 133.589087,113.077799 C134.118751,113.3022 134.539274,113.725693 134.759591,114.257205 C135.420994,115.850611 136.26317,117.446503 136.470607,119.131206 C136.561897,119.87582 136.523483,120.630829 136.35672,121.36211 C137.910463,117.972817 138.717162,114.289068 138.722359,110.560575 C138.722811,109.624779 138.670839,108.689888 138.566668,107.760193 C138.480801,106.997727 138.361491,106.24091 138.208738,105.489516 C137.376053,101.412557 135.588209,97.5911848 132.991858,94.3392895 C131.735486,93.6534312 130.719091,92.5992205 130.080285,91.3181229 C129.848895,90.8575696 129.685296,90.3660566 129.594683,89.8587247 C129.736364,89.8772553 129.88053,89.8887805 130.022211,89.8980458 C130.066275,89.9005316 130.112824,89.9027914 130.156887,89.9050513 L130.173609,89.9059552 C130.619892,89.9258417 130.997933,89.5803137 131.018044,89.1339973 C131.026857,88.9360362 130.962908,88.7416908 130.837949,88.5877964 C130.776712,88.5125441 130.715475,88.4372917 130.654238,88.3620394 C130.561366,88.2458841 130.466009,88.1319887 130.373137,88.0158334 C130.36229,88.0047603 130.352348,87.9930091 130.342857,87.9808061 C130.235975,87.84838 130.129093,87.7182138 130.022211,87.5857878 C130.21722,87.2829706 130.479793,87.0291917 130.78914,86.8445636 C131.86022,86.2170088 133.338264,86.6515741 134.111972,87.6205892 C134.888166,88.5898302 135.034592,89.9493439 134.765014,91.1599348 C134.499956,92.1901913 134.061582,93.1680197 133.468421,94.0509352 C133.526494,94.1255096 133.586827,94.1973722 133.6449,94.2717206 C134.706941,95.6375618 135.632498,97.1039655 136.408466,98.6501411 C136.219784,96.9179815 136.445072,95.1657093 137.065575,93.5375019 C137.694665,92.0200261 138.87353,90.7420923 139.911619,89.430261 C141.158726,87.8544816 143.715758,88.5421478 143.935397,90.5396115 C143.937657,90.559046 143.939691,90.5782546 143.941724,90.5976891 C143.78739,90.6846926 143.636444,90.7768936 143.488888,90.8747443 C142.980239,91.2143967 142.843529,91.9022889 143.183156,92.4109767 C143.355794,92.6690492 143.628535,92.8428302 143.935397,92.8902866 L143.957994,92.8936763 C143.903084,93.4495945 143.805919,94.000315 143.667402,94.5413183 C142.856635,97.5950265 140.809156,100.172137 138.018249,101.652777 C137.927636,101.699104 137.839283,101.745656 137.748671,101.789949 C138.528254,103.999159 139.017245,106.300795 139.203441,108.63633 C139.308741,110.014148 139.30264,111.398294 139.184912,112.775208 L139.191691,112.726396 C139.489288,111.195361 140.30593,109.813701 141.504002,108.815082 C143.283259,107.353424 145.797132,106.815133 147.716715,105.640021 C148.307616,105.260822 149.093978,105.432343 149.473149,106.023062 C149.635619,106.276163 149.703183,106.578754 149.663639,106.876826 C149.661153,106.894001 149.658441,106.910949 149.65573,106.928124 C149.369657,107.044731 149.091041,107.178965 148.821689,107.330148 C148.667354,107.417151 148.516409,107.509578 148.368627,107.607203 C147.860203,107.946855 147.723268,108.634748 148.063121,109.143435 C148.235533,109.401508 148.5085,109.575515 148.815136,109.622745 L148.837733,109.626135 C148.854002,109.628621 148.868012,109.630881 148.884282,109.633141 C148.395291,110.800795 147.709032,111.875344 146.855558,112.810009 C144.724697,115.096731 141.74556,116.404043 138.620222,116.423703 L138.617737,116.423703 C138.198118,118.248064 137.589817,120.023839 136.803003,121.722327 L130.319583,121.722327 C130.296308,121.650464 130.275519,121.576116 130.254504,121.504027 C130.85467,121.541766 131.457096,121.505835 132.048449,121.397137 C131.567368,120.80687 131.086512,120.211856 130.60543,119.621589 C130.594583,119.610516 130.584641,119.598765 130.57515,119.586787 C130.331107,119.284648 130.084804,118.984769 129.840986,118.682629 L129.84076,118.682404 C129.827654,117.756325 129.934084,116.832281 130.156887,115.93332 L130.157113,115.93332 Z" fill="#E6E6E6" transform="translate(.223349)"/>
    <path fill="#FFB6B6" d="M88.9616131 165.203782L91.6745623 164.397023 89.8799394 153.305778 85.8755937 154.496482z" transform="translate(.223349)"/>
    <path d="M72.3226201,160.826017 C72.4878013,160.969968 72.6534345,161.111886 72.8206494,161.254481 C73.1534975,161.538767 73.490639,161.820116 73.8284583,162.097623 C73.9981589,162.236603 74.1698932,162.375808 74.3398197,162.51298 L74.3391418,162.518404 L74.3499882,162.522019 L74.3533777,162.524505 L74.6274746,162.640208 L75.2082075,161.623059 L75.4759774,161.154596 L75.8546966,160.49111 L76.5481866,159.27713 L80.2000251,152.885879 L76.3531778,151.264225 L76.1059709,151.853588 L76.1041632,151.853362 L75.9819155,152.145558 L73.6847439,157.59672 L73.2158642,158.711268 L73.2009504,158.745166 L72.9189447,159.410686 L72.6758051,159.987394 L72.4046458,160.632124 L72.3226201,160.826017 Z" fill="#FFB6B6" transform="translate(.223349)"/>
    <path d="M52.2230463,133.165857 C52.41218,133.613755 52.6074147,134.060524 52.8049091,134.503902 C53.1716521,135.329192 53.5533089,136.145443 53.9496535,136.952654 C53.9492016,136.954688 53.9510093,136.954914 53.952591,136.956948 C54.2072549,137.280555 54.4985252,137.573429 54.8209789,137.829468 C54.8340849,137.843027 54.8494506,137.85297 54.8627826,137.864721 C55.1007249,138.050027 55.360586,138.205504 55.6364906,138.327082 C55.7361417,138.369567 55.8376005,138.412052 55.9372515,138.454537 C56.2974415,138.602782 56.6558238,138.737468 57.0139801,138.862436 C57.6514305,139.082996 58.2877511,139.269884 58.9229419,139.4231 C58.9740103,139.436885 59.0253046,139.448862 59.0765989,139.460839 C61.6966761,140.075287 64.3266958,140.170878 67.1015598,140.084326 C68.4715924,140.042971 69.8773277,139.956194 71.3330015,139.865801 C71.8088861,139.834841 72.2863525,139.805915 72.7692421,139.778119 C72.8056227,139.776311 72.8440369,139.772922 72.8824512,139.77134 C73.5725517,139.730437 74.2732727,139.693376 74.9907151,139.660834 C75.8934498,139.619705 76.8233004,139.588294 77.7868199,139.572023 L77.5109153,140.882272 C77.2944397,141.889704 76.9245332,142.857815 76.4143017,143.752934 C75.8288235,144.860477 75.3653669,145.736613 75.7284945,147.771138 L75.9029403,148.755972 C75.4155314,149.642277 75.371468,150.705753 75.7840822,151.629345 L75.8333428,151.737817 L72.0682952,158.113249 L71.8242518,158.526572 L73.2006115,158.744646 L74.8935497,159.014696 L77.7630935,159.469147 L83.2192715,151.817815 L83.4802624,151.452627 L83.4834259,151.432288 L85.583781,135.400151 C85.6005025,135.258459 85.6120268,135.114056 85.6158682,134.970331 C85.6682924,133.653076 85.1892442,132.370171 84.2865095,131.409743 C83.4224151,130.482761 82.2229869,129.941306 80.9564467,129.906052 L79.5102636,129.864923 L76.5555305,129.780632 L74.4739306,129.722554 L74.4321268,129.721424 L68.293983,129.546739 L68.141004,127.718537 L68.0659832,127.676278 L65.6806848,126.34682 L57.4304357,121.748744 L57.4094208,121.737897 L56.8666502,121.435532 L56.7805571,121.535868 C56.7547969,121.565924 56.7292628,121.59598 56.7055363,121.626487 C55.97431,122.557085 55.340249,123.560224 54.8128441,124.619632 C53.9345138,126.34795 53.1553826,128.124854 52.4792919,129.941758 C52.4496904,130.020626 52.4230263,130.092488 52.3995259,130.157119 L52.3907132,130.176554 C52.3803188,130.207062 52.3733138,130.226948 52.3706022,130.232146 C52.0354944,131.041391 52.0135757,132.090178 52.2230463,133.165857" fill="#2F2E41" transform="translate(.223349)"/>
    <path d="M52.7851597,127.223996 C52.8317087,127.109874 52.8859405,126.995075 52.9415282,126.884117 C53.3756091,126.046624 53.8555612,125.233763 54.3791247,124.449376 C54.9688963,123.555162 55.6567372,122.606259 56.4577871,121.58798 C56.8455449,121.094885 57.2595149,120.583711 57.6996969,120.054685 C57.9200139,119.789381 58.1482397,119.519783 58.3841483,119.245666 C58.3936389,119.233011 58.4038073,119.220582 58.4146537,119.208831 L58.4824435,119.128381 L66.9647599,121.660972 L66.9606925,122.822525 L67.5759983,124.468359 L67.5341946,124.516719 C67.5360023,124.516945 67.5364542,124.515138 67.5341946,124.516719 L67.5341946,124.290736 L67.7601607,124.516719 L69.9470608,127.219024 L69.9622006,127.219702 L74.8491699,127.357552 L79.8855029,127.500147 L82.5907693,127.577207 C83.8573095,127.612008 85.0569636,128.15369 85.9208321,129.080898 C86.8233408,130.041552 87.302163,131.324457 87.2501908,132.641486 C87.2463494,132.773912 87.2364069,132.90905 87.2210412,133.041476 L88.783371,139.364254 C89.7184188,143.145627 90.0777049,147.046546 89.8485753,150.935261 L90.7540215,157.089456 L90.4889633,157.072281 L86.5451765,156.817824 L85.5034727,156.751611 L83.7660192,153.094077 C83.5680728,152.677138 83.3850403,152.25116 83.219859,151.818629 C82.9473439,151.111754 82.720022,150.388156 82.539475,149.65213 L79.4932257,137.243178 C79.1050159,137.248149 78.7210995,137.250635 78.3412504,137.250635 C76.5836859,137.256963 74.9027239,137.223065 73.2985904,137.148717 C68.0819364,136.909401 63.6362789,136.25066 59.7616378,135.139502 C58.6736109,134.828323 57.6289695,134.480536 56.6283915,134.096138 C56.2611965,133.956255 55.9001027,133.811174 55.544658,133.660443 C55.4608245,133.62632 55.3787988,133.592422 55.2972251,133.556717 C53.8051707,132.90905 52.7440338,131.547954 52.4798794,129.942797 C52.3205733,129.025984 52.4265514,128.082731 52.7851597,127.223996" fill="#2F2E41" transform="translate(.223349)"/>
    <path d="M88.428559,163.354767 L91.3645368,162.479083 L91.8250558,162.341233 L92.2426412,164.128081 L96.8485087,165.934363 C97.4380543,166.165091 97.7290987,166.829933 97.4983873,167.419749 C97.3609999,167.770926 97.059787,168.032163 96.6923661,168.118262 L91.7283423,169.282301 L90.4590906,167.715787 L90.5390826,169.561164 L88.6694389,170.000023 L87.7149579,163.568321 L88.428559,163.354767 Z" fill="#2F2E41" transform="translate(.223349)"/>
    <path fill="#2F2E41" d="M72.0681822 158.113362L71.8241388 158.526685 71.9983587 158.554255z" transform="translate(.223349)"/>
    <path d="M72.9337907,158.79895 L75.6361195,160.242529 L76.060258,160.468738 L75.1001279,162.032314 L77.1019618,166.55672 C77.3586593,167.135462 77.0974425,167.812959 76.5187432,168.069676 C76.1739189,168.222666 75.7759926,168.196 75.4544428,167.998943 L71.1079844,165.333022 L71.3084163,163.326745 L70.0667325,164.694168 L68.4296079,163.690351 L72.2764552,158.448676 L72.9337907,158.79895 Z" fill="#2F2E41" transform="translate(.223349)"/>
    <path d="M92.4615346,76.5034236 C92.5598298,77.6346945 91.7223994,78.6315055 90.590987,78.7298081 C90.4703211,78.7402033 90.3492032,78.7399773 90.2285373,78.7291301 L87.2229619,85.3895269 L85.1937861,82.1801164 L88.3588936,76.3474954 C88.536277,75.2196143 89.5944764,74.4492382 90.7222733,74.6266349 C91.6661338,74.7751057 92.385158,75.5511313 92.4615346,76.5034236 Z" fill="#FFB6B6" transform="translate(.223349)"/>
    <path d="M84.8164905,96.3169345 L71.0463408,106.853844 C68.7717658,108.590523 65.5207912,108.157991 63.7794962,105.887088 C62.039783,103.613021 62.4727341,100.359318 64.7466312,98.6194752 C64.9985835,98.4267117 65.2679351,98.2572245 65.5510707,98.1137253 L79.2789646,91.1484775 L85.420272,79.18313 L89.5439278,80.4086357 L84.8164905,96.3169345 Z" fill="#F8D48F" transform="translate(.223349)"/>
    <path d="M55.4896578,108.834584 L55.2103637,119.058959 C51.3684876,125.550094 50.9316951,128.702105 51.9950917,130.382741 L67.7923834,124.611813 L68.0585715,123.975897 L68.8835739,119.407651 L70.3792436,114.693871 C70.6424942,114.201455 74.2177302,111.175542 70.8662006,105.435574 L64.1238234,96.3519619 L58.7214253,96.0425911 C57.8308928,98.3288611 59.437512,99.5760612 57.8329265,100.10328 C54.2041365,103.429297 54.7371906,103.970527 55.4896578,108.834584" fill="#F8D48F" transform="translate(.223349)"/>
    <path d="M44.7457821,137.538831 C44.2836814,136.501569 44.7496235,135.286007 45.787034,134.823646 C45.8975314,134.774381 46.0123222,134.73506 46.1298246,134.705908 L46.7961987,127.429256 L49.7620041,129.800044 L48.6744291,136.346545 C48.8748611,137.470584 48.1262353,138.544456 47.0022798,138.744676 C46.0618088,138.912582 45.1290206,138.413837 44.7457821,137.538831 Z" fill="#FFB6B6" transform="translate(.223349)"/>
    <path d="M45.5032657,116.31487 L55.0788062,101.85919 C56.6616989,99.4750694 59.8756151,98.8222046 62.2629472,100.400244 C64.6498274,101.981447 65.3026435,105.198315 63.7215585,107.585147 C63.5462088,107.849773 63.3471327,108.097676 63.1263638,108.325919 L52.4246081,119.39208 L50.5262667,132.706998 L46.228617,132.895016 L45.5032657,116.31487 Z" fill="#F8D48F" transform="translate(.223349)"/>
    <path d="M65.7972833,83.6378649 C67.707375,87.4029676 66.4595901,91.7644393 62.9150854,94.0579407 C59.0820221,96.5378781 54.1055701,95.9948409 52.4957874,91.1753017 C50.7031982,85.8084316 52.1758194,83.5061168 55.3779854,80.7554518 C59.1306048,77.5320304 63.7333088,79.5697191 65.7972833,83.6378649" fill="#2F2E41" transform="translate(.223349)"/>
    <path d="M56.3944036,92.0255401 C58.4204158,94.6812922 62.2155169,95.1915618 64.8710708,93.1651723 C67.5227833,91.1417206 68.0359523,87.3533417 66.0178489,84.6973636 L65.9651988,84.6284388 C63.8804353,82.0185612 60.0749398,81.5932612 57.465257,83.6781803 C54.9150034,85.7158689 54.4418303,89.4095609 56.3959853,92.0244102 L56.3944036,92.0255401 Z" fill="#FFB6B6" transform="translate(.223349)"/>
    <path d="M67.6483978,83.0282306 C66.6654452,83.9635742 65.4675988,84.6424271 64.1601588,85.0049038 C63.8980381,84.7018606 63.5873346,84.44424 63.2407026,84.2431152 C63.4067877,84.5881912 63.5204487,84.9560915 63.57807,85.334613 C62.9950774,86.5449779 60.6136205,87.4147865 58.3374637,88.3044815 L55.3226237,82.983486 L59.3129594,80.7223001 C62.5194187,78.505407 66.2941828,79.4515978 67.6483978,83.0282306" fill="#2F2E41" transform="translate(.223349)"/>
    <path d="M53.048478,80.7620731 C52.5054814,80.511232 51.8018229,80.6660304 51.2913654,81.0187898 C50.8055382,81.388046 50.4128091,81.8657741 50.1443614,82.4140088 C49.6562745,83.3007661 49.3055751,84.2564482 49.1044653,85.2485135 C48.9322791,86.1067969 48.9614287,87.1445108 49.7312953,87.5924091 C50.3739429,87.965959 51.2924952,87.7307107 51.8829447,87.2319662 C52.4736202,86.7332218 52.8062423,86.0322225 53.0943491,85.34772 C53.3822299,84.6632175 53.6549711,83.9536309 54.1670103,83.3852837 L53.6348601,83.633639 C53.8032048,83.1229175 53.8813891,82.5871118 53.8664754,82.0497242 C53.841845,81.5057832 53.5304637,81.0156261 53.048478,80.7620731" fill="#2F2E41" transform="translate(.223349)"/>
    <path d="M59.9503647,81.4594567 L55.6692105,83.8853841 C53.2586039,85.2514513 52.4116828,88.3132948 53.7776481,90.7240814 C55.7575632,94.2177785 60.0696748,95.63311 63.7346194,93.9917955 L59.8226938,90.5383234 L65.1295083,93.2424359 L66.2625024,92.6001922 C60.5710936,91.5654161 59.4731242,87.1004441 59.9503647,81.4594567" fill="#2F2E41" transform="translate(.223349)"/>
  </g>
</svg>
