<svg xmlns="http://www.w3.org/2000/svg" viewBox="0 0 220 199" class="design-iconfont">
  <g fill="none" fill-rule="evenodd">
    <path d="M107.415298,180.29746 C110.129842,181.25457 113.145472,180.721591 115.370452,178.891993 C118.15644,176.546476 119.030442,172.683574 119.740803,169.105246 L121.843307,158.522101 L117.441997,161.56165 C114.276333,163.747478 111.039566,166.003595 108.847926,169.170077 C106.656627,172.336217 105.700294,176.658736 107.460546,180.084883" fill="#535B63"/>
    <path d="M112.049006,188.056465 C113.213208,189.831469 115.21637,190.868764 117.332823,190.792673 C120.008583,190.6654 122.237985,188.79315 124.24523,187.015075 L130.182593,181.757624 L126.253156,181.568932 C123.427023,181.433128 120.528425,181.305855 117.837016,182.180732 C115.145606,183.05595 112.663087,185.15852 112.170801,187.952735" fill="#535B63"/>
    <path d="M122.330761,184.007839 C120.731429,183.866576 119.119849,184.03343 117.583116,184.499189 C113.49378,185.743262 110.73739,188.946253 108.499823,192.444737 C108.2382,190.512092 107.992908,188.576375 107.869071,186.629399 C107.633305,182.915266 107.853081,179.104229 109.224132,175.608133 C110.464881,172.463831 112.669449,169.796549 115.519396,167.990153 C115.946701,167.719569 115.551376,167.037138 115.12237,167.308745 C113.475068,168.349453 112.021347,169.670299 110.827206,171.212252 C108.57671,174.122822 107.471365,177.671464 107.126391,181.30507 C106.73855,185.376455 107.300919,189.45637 107.852401,193.484421 C107.309424,194.381477 106.794685,195.287405 106.294575,196.174224 C106.04486,196.617463 106.766788,196.934111 107.013781,196.49599 C107.78606,195.124645 108.558679,193.751593 109.421114,192.434159 C110.828567,190.28416 112.492539,188.256315 114.628724,186.797959 C116.849281,185.27409 119.525041,184.56402 122.205903,184.787175 C122.709076,184.83051 122.834954,184.051515 122.330761,184.007839" fill="#61696F"/>
    <path d="M191.423806,138.803454 L3.40211008,138.803454 C1.52278447,138.803454 0,137.27549 0,135.391297 L0,3.41215646 C0,1.52762245 1.52278447,0 3.40211008,0 L191.423806,0 C193.302451,0 194.825916,1.52762245 194.825916,3.41215646 L194.825916,135.391297 C194.825916,137.27549 193.302451,138.803454 191.423806,138.803454" fill="#3D454E"/>
    <path d="M15.869959,57.0089793 C14.8217689,57.0106854 13.9732826,57.864407 13.9749811,58.9156924 C13.9766847,59.9649305 14.8241503,60.8148987 15.869959,60.8169459 L81.6633658,60.8169459 C82.7118962,60.8142162 83.5593618,59.959471 83.5569853,58.9081856 C83.5542586,57.8603124 82.7081539,57.0113679 81.6633658,57.0089793 L15.869959,57.0089793 Z" fill="#F8D48F"/>
    <path d="M15.869959,68.4323891 C14.8217689,68.4286481 13.9688599,69.278275 13.9651073,70.3299017 C13.9617154,71.3811871 14.8085006,72.2366147 15.857031,72.2403706 L15.8621341,72.2403706 L81.7116758,72.2403706 C82.7602061,72.2420741 83.6114141,71.3907411 83.6131177,70.3394557 C83.6148162,69.2878291 82.7663299,68.4341075 81.7181398,68.4323891 L81.7116758,68.4323891 L15.869959,68.4323891 Z" fill="#F8D48F"/>
    <path d="M15.869959,79.6925054 C14.8217689,79.6887644 13.9688599,80.5383914 13.9651073,81.590018 C13.9617154,82.6416446 14.8088408,83.496731 15.857031,83.5001457 L15.8621341,83.5001457 L30.6800246,83.5001457 C31.7285549,83.5018492 32.5797629,82.6508574 32.5814665,81.599572 C32.583165,80.5479454 31.7346787,79.6942238 30.6864886,79.6925054 L30.6800246,79.6925054 L15.869959,79.6925054 Z" fill="#F8D48F"/>
    <path d="M133.523159,108.303957 C131.637369,108.300891 130.106079,109.831925 130.103353,111.723283 C130.100296,113.613277 131.624441,115.148406 133.50887,115.153185 L166.114012,115.153185 C167.999802,115.154889 169.529731,113.622831 169.531433,111.731473 C169.533133,109.840114 168.005245,108.305668 166.119796,108.303957 L166.114012,108.303957 L133.523159,108.303957 Z" fill="#61696F"/>
    <path d="M133.523159,66.8299458 C131.637369,66.8268795 130.106079,68.3579141 130.103013,70.2492724 C130.099956,72.1392659 131.624441,73.6743951 133.50887,73.6795147 L166.114012,73.6795147 C167.999802,73.6812194 169.529731,72.1488199 169.531433,70.2574616 C169.533133,68.3661033 168.005245,66.8313153 166.119796,66.8299458 L166.114012,66.8299458 L133.523159,66.8299458 Z" fill="#F8D48F"/>
    <path d="M15.869959,109.890056 C14.8217689,109.886315 13.9688599,110.735942 13.9651052,111.787568 C13.9613752,112.838854 14.8085006,113.69394 15.8566908,113.697696 L15.8621341,113.697696 L81.7116758,113.697696 C82.7602061,113.6994 83.6114141,112.848408 83.6131177,111.797123 C83.6148162,110.745496 82.7663299,109.891774 81.7181398,109.890056 L81.7116758,109.890056 L15.869959,109.890056 Z" fill="#61696F"/>
    <path d="M15.869959,121.150172 C14.8217689,121.146431 13.9688599,121.996058 13.9651073,123.047685 C13.9617154,124.099311 14.8088408,124.954398 15.857031,124.957813 L15.8621341,124.957813 L30.6800246,124.957813 C31.7285549,124.959516 32.5797629,124.108524 32.5814665,123.057239 C32.583165,122.005612 31.7346787,121.151891 30.6864886,121.150172 L30.6800246,121.150172 L15.869959,121.150172 Z" fill="#61696F"/>
    <path d="M15.869959,98.4666803 C14.8217689,98.4683864 13.9732826,99.3221079 13.9749811,100.373735 C13.9766847,101.422631 14.8241503,102.2726 15.869959,102.274306 L81.6633658,102.274306 C82.7118962,102.271576 83.5593618,101.417172 83.5569853,100.365545 C83.5542586,99.3180133 82.7081539,98.46941 81.6633658,98.4666803 L15.869959,98.4666803 Z" fill="#61696F"/>
    <path d="M15.869959,15.5512784 C14.8217689,15.5512784 13.9719218,16.4036351 13.9719218,17.4552617 C13.9719218,18.5065471 14.8217689,19.359245 15.869959,19.359245 L81.6633658,19.359245 C82.7118962,19.3571977 83.5600422,18.5031349 83.5580046,17.4515083 C83.5559597,16.4029526 82.7088343,15.5529845 81.6633658,15.5512784 L15.869959,15.5512784 Z" fill="#61696F"/>
    <path d="M15.869959,26.9746968 C14.8217689,26.9726532 13.9698805,27.8229626 13.9678342,28.8745892 C13.9654578,29.9262158 14.813944,30.7802786 15.8621341,30.7826671 L81.7116758,30.7826671 C82.7602061,30.7826671 83.6100532,29.9303104 83.6100532,28.8786838 C83.6100532,27.8270572 82.7602061,26.9746968 81.7116758,26.9746968 L15.869959,26.9746968 Z" fill="#61696F"/>
    <path d="M15.869959,38.2348066 C14.8217689,38.2314047 13.9688599,39.0806904 13.9651093,40.132317 C13.9620556,41.1839436 14.8088408,42.03903 15.8573712,42.042786 L15.8621341,42.042786 L30.6800246,42.042786 C31.7285549,42.0444895 32.5797629,41.1931565 32.5814665,40.1418711 C32.583165,39.0902444 31.7346787,38.2365229 30.6864886,38.2348066 L30.6800246,38.2348066 L15.869959,38.2348066 Z" fill="#61696F"/>
    <path d="M133.523159,25.3883853 C131.637369,25.3856592 130.106079,26.9163526 130.103014,28.807711 C130.100296,30.6980456 131.624441,32.2328336 133.50887,32.2379533 L166.114012,32.2379533 C167.999802,32.2396579 169.529731,30.7075997 169.531433,28.8159001 C169.533133,26.9245418 168.005245,25.390095 166.119796,25.3883853 L166.114012,25.3883853 L133.523159,25.3883853 Z" fill="#61696F"/>
    <path d="M140.392189,22.6388392 C143.773886,22.6388392 146.515987,25.3886961 146.515987,28.7807208 C146.515987,32.1727455 143.773886,34.9226024 140.392189,34.9226024 C137.010151,34.9226024 134.268391,32.1727455 134.268391,28.7807208 C134.268391,25.3886961 137.010151,22.6388392 140.392189,22.6388392" fill="#61696F"/>
    <path d="M151.095193,71.7397365 C150.838674,73.6024327 152.136579,75.3207947 153.993791,75.5780713 C154.191794,75.6053685 154.391498,75.6152638 154.591202,75.6070746 L157.843279,82.6705797 L162.604872,81.7353076 L157.872877,71.8253816 C157.674534,69.9456246 155.993892,68.5828093 154.119669,68.7820793 C152.550956,68.9485925 151.300681,70.1715094 151.095193,71.7397365" fill="#FFB6B6"/>
    <path fill="#3F3D56" d="M184.0382 98.4693759L170.76997 91.8869849 161.407363 75.9498257 154.863064 79.1248373 163.356092 97.5358099 184.811159 109.957765z"/>
    <path fill="#FFB6B6" d="M154.083675 192.682871L149.912688 192.68253 147.928237 180.62124 154.084355 180.621581z"/>
    <path d="M155.147515,196.73781 L141.698633,196.737469 L141.698633,196.566861 C141.698974,193.667552 144.042347,191.316917 146.93312,191.316576 L146.93346,191.316576 L155.147855,191.316917 L155.147515,196.73781 Z" fill="#2F2E41"/>
    <path fill="#FFB6B6" d="M195.716997 185.010501L192.806832 188.007057 182.80769 181.017596 187.102854 176.594758z"/>
    <path d="M199.355656,187.07547 L189.971956,196.737673 L189.85016,196.61893 C187.779296,194.595863 187.735409,191.272081 189.752179,189.19476 L189.75252,189.19476 L195.483714,183.293095 L199.355656,187.07547 Z" fill="#2F2E41"/>
    <path d="M159.240321,120.901609 L156.355672,120.901609 C148.856401,129.12047 143.13133,138.805876 139.541423,149.349099 L136.095426,159.468872 L148.377384,185.261363 L156.041998,185.398532 L147.282244,158.015635 L156.107318,146.277475 L156.552314,169.87322 L184.957212,184.80584 L190.642137,176.383273 L167.527861,163.706771 L171.464443,143.636807 C171.464443,143.636807 179.383875,137.013129 174.772315,126.657576 L159.240321,120.901609 Z" fill="#2F2E41"/>
    <path d="M197.207393,94.6353404 L185.219718,89.3693594 L172.025315,95.2334914 C172.025315,95.2334914 168.289458,97.3650656 170.670935,102.824516 L156.355536,120.90178 C156.355536,120.90178 156.382072,120.908945 174.373111,126.657746 L190.604918,112.32123 C195.610443,107.900099 198.086839,101.266525 197.207393,94.6353404" fill="#3F3D56"/>
    <path d="M195.195386,72.4530137 C199.810348,72.4530137 203.551648,76.2050209 203.551648,80.8336111 C203.551648,85.4622014 199.810348,89.2142086 195.195386,89.2142086 C190.580763,89.2142086 186.839463,85.4622014 186.839463,80.8336111 C186.839463,76.2050209 190.580763,72.4530137 195.195386,72.4530137" fill="#FFB6B6"/>
    <path d="M206.017021,69.7120966 C204.099252,68.1472817 201.125127,67.8057248 199.145439,69.2906953 C195.692298,67.4730395 191.026304,68.4212778 188.550928,71.4434248 C187.660256,72.5308791 187.029165,74.0018597 187.469738,75.3380602 C187.910651,76.6742606 189.81107,77.4597391 190.801764,76.4630482 L190.784414,76.8735306 C193.372739,79.4732526 193.369677,83.6852185 190.77795,86.2808459 C189.673625,87.3867258 188.215821,88.0667686 186.660716,88.2015488 C189.398734,89.3108409 192.137093,90.4201329 194.875451,91.5297662 C196.027406,91.9965492 197.216443,92.470839 198.458894,92.4643559 C199.701344,92.4578728 201.025786,91.852215 201.507865,90.7040244 C201.85488,91.7696408 202.201215,92.8352573 202.54789,93.901215 C204.588816,90.6443116 206.267417,87.1731249 207.554435,83.5497559 C208.383189,81.2137936 209.053405,78.7710308 208.963589,76.293464 C208.874113,73.815556 207.934791,71.2769116 206.017021,69.7120966" fill="#2F2E41"/>
    <path d="M140.392189,105.554241 C143.773886,105.554241 146.515987,108.304098 146.515987,111.696123 C146.515987,115.088147 143.773886,117.838004 140.392189,117.838004 C137.010151,117.838004 134.268391,115.088147 134.268391,111.696123 C134.268391,108.304098 137.010151,105.554241 140.392189,105.554241" fill="#61696F"/>
    <path d="M159.444006,64.1127137 C162.825703,64.1127137 165.567804,66.8625706 165.567804,70.2545954 C165.567804,73.6466201 162.825703,76.396477 159.444006,76.396477 C156.061968,76.396477 153.320207,73.6466201 153.320207,70.2545954 C153.320207,66.8625706 156.061968,64.1127137 159.444006,64.1127137" fill="#F8D48F"/>
    <path d="M159.600469,68.32758 C159.343949,70.1902762 160.641854,71.9086382 162.499066,72.1659148 C162.697069,72.1932121 162.896773,72.2031073 163.096477,72.1949181 L166.348554,79.2584232 L171.110147,78.3231511 L166.378152,68.4132251 C166.179809,66.5334681 164.499167,65.1706529 162.624944,65.3699228 C161.056231,65.536436 159.805956,66.7593529 159.600469,68.32758" fill="#FFB6B6"/>
    <path fill="#3F3D56" d="M192.543475 95.0572194L179.275245 88.4748284 169.912638 72.5376693 163.368339 75.7126808 171.861367 94.1236534 193.316434 106.545609z"/>
    <path d="M219.659993,198.317603 L32.2037276,198.317603 C32.0155909,198.317603 31.8635166,197.869603 31.8635166,197.317603 C31.8635166,196.764603 32.0155909,196.317603 32.2037276,196.317603 L219.659993,196.317603 C219.84779,196.317603 220.000204,196.764603 220.000204,197.317603 C220.000204,197.869603 219.84779,198.317603 219.659993,198.317603" fill="#171A1D"/>
  </g>
</svg>
