<?xml version="1.0" encoding="UTF-8"?>
<svg width="44px" height="44px" viewBox="0 0 44 44" version="1.1" xmlns="http://www.w3.org/2000/svg" xmlns:xlink="http://www.w3.org/1999/xlink">
    <title>icon_del</title>
    <g id="首页" stroke="none" stroke-width="1" fill="none" fill-rule="evenodd">
        <g id="画板" transform="translate(-40.000000, -277.000000)">
            <g id="icon_del" transform="translate(40.000000, 277.000000)">
                <rect id="矩形" fill="#D8D8D8" opacity="0" x="0" y="0" width="44" height="44"></rect>
                <path d="M13.7826719,13.9806674 C13.376784,14.4852109 13.4080062,15.2251284 13.8763383,15.6934606 L20.183,21.999 L13.8763089,28.3065689 C13.3745539,28.8083239 13.3745539,29.6218772 13.8763383,30.1236617 L13.9806674,30.2173281 C14.4852109,30.623216 15.2251284,30.5919938 15.6934606,30.1236617 L21.999,23.816 L28.30651,30.1236322 C28.8083239,30.6254461 29.6218772,30.6254461 30.1236617,30.1236617 L30.2173281,30.0193326 C30.623216,29.5147891 30.5919938,28.7748716 30.1236617,28.3065394 L23.816,21.999 L30.1236322,15.6934901 C30.6254461,15.1916761 30.6254461,14.3781228 30.1236617,13.8763383 L30.0193326,13.7826719 C29.5147891,13.376784 28.7748716,13.4080062 28.3065394,13.8763383 L21.9999963,20.182 L15.6934606,13.8763383 C15.1916761,13.3745539 14.3781228,13.3745539 13.8763383,13.8763383 L13.7826719,13.9806674 Z" id="路径" fill="#3D454E" fill-rule="nonzero"></path>
            </g>
        </g>
    </g>
</svg>