<svg xmlns="http://www.w3.org/2000/svg" viewBox="0 0 40 40" class="design-iconfont">
  <path d="M35.7846154,3 C37.5579487,3 39,4.45357143 39,6.24107143 L39,6.24107143 L39,27.4553571 C39,29.2428571 37.5579487,30.6964286 35.7846154,30.6964286 L35.7846154,30.6964286 L31.9846154,30.6964286 L31.9846154,35.5267857 C31.9846154,36.3419643 31.3317949,37 30.5230769,37 C29.714359,37 29.0615385,36.3419643 29.0615385,35.5267857 L29.0615385,35.5267857 L29.0615385,30.6964286 L10.9384615,30.6964286 L10.9384615,35.5267857 C10.9384615,36.3419643 10.285641,37 9.47692308,37 C8.66820513,37 8.01538462,36.3419643 8.01538462,35.5267857 L8.01538462,35.5267857 L8.01538462,30.6964286 L4.21538462,30.6964286 C2.44107692,30.6964286 1,29.2428571 1,27.4553571 L1,27.4553571 L1,6.24107143 C1,4.45357143 2.44107692,3 4.21538462,3 L4.21538462,3 Z M32.1307692,21.5625 L30.3759487,21.5625 C29.5672308,21.5625 28.9144103,22.2205357 28.9144103,23.0357143 C28.9144103,23.8508929 29.5672308,24.5089286 30.3759487,24.5089286 L30.3759487,24.5089286 L32.1307692,24.5089286 C32.9394872,24.5089286 33.5923077,23.8508929 33.5923077,23.0357143 C33.5923077,22.2205357 32.9394872,21.5625 32.1307692,21.5625 L32.1307692,21.5625 Z M22.3969231,9.1875 L8.83384615,9.1875 C7.49897436,9.1875 6.40769231,10.3071429 6.40769231,11.6919643 L6.40769231,11.6919643 L6.40769231,22.0044643 C6.40769231,23.3892857 7.49897436,24.5089286 8.83384615,24.5089286 L8.83384615,24.5089286 L22.3969231,24.5089286 C23.7317949,24.5089286 24.8230769,23.3892857 24.8230769,22.0044643 L24.8230769,22.0044643 L24.8230769,11.6919643 C24.8230769,10.3071429 23.7317949,9.1875 22.3969231,9.1875 L22.3969231,9.1875 Z M15.6151897,12.2813482 C16.4239077,12.2813482 17.0767282,12.9393839 17.0767282,13.7545625 L17.0767282,19.9420625 C17.0767282,20.7572411 16.4239077,21.4152768 15.6151897,21.4152768 C14.8064718,21.4152768 14.1536513,20.7572411 14.1536513,19.9420625 L14.1536513,13.7545625 C14.1536513,12.9393839 14.8064718,12.2813482 15.6151897,12.2813482 Z M10.5483282,13.6073393 C11.3570462,13.6073393 12.0098667,14.265375 12.0098667,15.0805536 L12.0098667,18.6162679 C12.0098667,19.4314464 11.3570462,20.0894821 10.5483282,20.0894821 C9.73961026,20.0894821 9.08678974,19.4314464 9.08678974,18.6162679 L9.08678974,15.0805536 C9.08678974,14.265375 9.73961026,13.6073393 10.5483282,13.6073393 Z M20.6820513,13.6073393 C21.4907692,13.6073393 22.1435897,14.265375 22.1435897,15.0805536 L22.1435897,18.6162679 C22.1435897,19.4314464 21.4907692,20.0894821 20.6820513,20.0894821 C19.8733333,20.0894821 19.2205128,19.4314464 19.2205128,18.6162679 L19.2205128,15.0805536 C19.2205128,14.265375 19.8733333,13.6073393 20.6820513,13.6073393 Z M32.1307692,15.375 L30.3759487,15.375 C29.5672308,15.375 28.9144103,16.0330357 28.9144103,16.8482143 C28.9144103,17.6633929 29.5672308,18.3214286 30.3759487,18.3214286 L30.3759487,18.3214286 L32.1307692,18.3214286 C32.9394872,18.3214286 33.5923077,17.6633929 33.5923077,16.8482143 C33.5923077,16.0330357 32.9394872,15.375 32.1307692,15.375 L32.1307692,15.375 Z M31.2538462,9.1875 C30.4451282,9.1875 29.7923077,9.84553571 29.7923077,10.6607143 C29.7923077,11.4758929 30.4451282,12.1339286 31.2538462,12.1339286 C32.0625641,12.1339286 32.7153846,11.4758929 32.7153846,10.6607143 C32.7153846,9.84553571 32.0625641,9.1875 31.2538462,9.1875 Z" fill="#FFF" fill-rule="evenodd"/>
</svg>
