<?xml version="1.0" encoding="UTF-8"?>
<svg width="28px" height="28px" viewBox="0 0 28 28" version="1.1" xmlns="http://www.w3.org/2000/svg" xmlns:xlink="http://www.w3.org/1999/xlink">
    <title>icon_Preset_off</title>
    <g id="模式" stroke="none" stroke-width="1" fill="none" fill-rule="evenodd">
        <g id="图标" transform="translate(-379.000000, -198.000000)">
            <g id="icon" transform="translate(379.000000, 198.000000)">
                <rect id="矩形备份-13" x="0" y="0" width="28" height="28"></rect>
                <path d="M10.8657364,15.7342653 C11.6388855,15.7342653 12.2657347,16.3611145 12.2657347,17.1342636 L12.2657347,26.6000017 C12.2657347,27.3731508 11.6388855,28 10.8657364,28 L1.39999825,28 C0.626849216,28 0,27.3731508 0,26.6000017 L0,17.1342636 C0,16.3611145 0.626849216,15.7342653 1.39999825,15.7342653 L10.8657364,15.7342653 Z M26.6000017,15.7342653 C27.3731508,15.7342653 28,16.3611145 28,17.1342636 L28,26.6000017 C28,27.3731508 27.3731508,28 26.6000017,28 L17.1342636,28 C16.3611145,28 15.7342653,27.3731508 15.7342653,26.6000017 L15.7342653,17.1342636 C15.7342653,16.3611145 16.3611145,15.7342653 17.1342636,15.7342653 L26.6000017,15.7342653 Z M10.8657364,0 C11.6388855,0 12.2657347,0.626849216 12.2657347,1.39999825 L12.2657347,10.8657364 C12.2657347,11.6388855 11.6388855,12.2657347 10.8657364,12.2657347 L1.39999825,12.2657347 C0.626849216,12.2657347 0,11.6388855 0,10.8657364 L0,1.39999825 C0,0.626849216 0.626849216,0 1.39999825,0 L10.8657364,0 Z M26.6000017,9.46573817 C27.3731508,9.46573817 28,10.0925874 28,10.8657364 C28,11.6388855 27.3731508,12.2657347 26.6000017,12.2657347 L26.6000017,12.2657347 L17.1342636,12.2657347 C16.3611145,12.2657347 15.7342653,11.6388855 15.7342653,10.8657364 C15.7342653,10.0925874 16.3611145,9.46573817 17.1342636,9.46573817 L17.1342636,9.46573817 Z M26.6000017,4.73286908 C27.3731508,4.73286908 28,5.3597183 28,6.13286733 C28,6.90601637 27.3731508,7.53286558 26.6000017,7.53286558 L26.6000017,7.53286558 L17.1342636,7.53286558 C16.3611145,7.53286558 15.7342653,6.90601637 15.7342653,6.13286733 C15.7342653,5.3597183 16.3611145,4.73286908 17.1342636,4.73286908 L17.1342636,4.73286908 Z M26.6000017,3.49999562e-05 C27.3731508,3.49999562e-05 28,0.626884216 28,1.40003325 C28,2.17318228 27.3731508,2.8000315 26.6000017,2.8000315 L26.6000017,2.8000315 L17.1342636,2.8000315 C16.3611145,2.8000315 15.7342653,2.17318228 15.7342653,1.40003325 C15.7342653,0.626884216 16.3611145,3.49999562e-05 17.1342636,3.49999562e-05 L17.1342636,3.49999562e-05 Z" id="形状结合" fill="#8B8F93"></path>
            </g>
        </g>
    </g>
</svg>