<svg xmlns="http://www.w3.org/2000/svg" viewBox="0 0 30 30" class="design-iconfont">
  <path d="M15,1 C22.7319865,1 29,7.2680135 29,15 C29,22.7319865 22.7319865,29 15,29 C7.2680135,29 1,22.7319865 1,15 C1,7.2680135 7.2680135,1 15,1 Z M12.7777778,8.54403039 C11.7959382,8.54403039 11,9.33996861 11,10.3218082 L11,10.3218082 L11,19.6781918 C11,20.0291696 11.1038898,20.3722944 11.2985773,20.6643255 C11.8432038,21.4812654 12.9469716,21.702019 13.7639115,21.1573924 L13.7639115,21.1573924 L20.7811992,16.4792005 C20.9764922,16.3490052 21.1440708,16.1814266 21.2742661,15.9861337 C21.8188927,15.1691938 21.5981391,14.0654261 20.7811992,13.5207995 L20.7811992,13.5207995 L13.7639115,8.84260764 C13.4718803,8.64792021 13.1287555,8.54403039 12.7777778,8.54403039 Z" fill="#F7D58F" fill-rule="evenodd"/>
</svg>
