<?xml version="1.0" encoding="UTF-8"?>
<svg width="30px" height="30px" viewBox="0 0 30 30" version="1.1" xmlns="http://www.w3.org/2000/svg" xmlns:xlink="http://www.w3.org/1999/xlink">
    <title>步骤状态/暂停</title>
    <g id="步骤状态/暂停" stroke="none" stroke-width="1" fill="none" fill-rule="evenodd">
        <g id="icon_完成步骤" fill="#F87171" fill-rule="nonzero">
            <path d="M15,1 C18.86596,1 22.36596,2.567006 24.89947,5.100502 C27.43298,7.63404 29,11.13404 29,15 C29,18.86596 27.43298,22.36596 24.89947,24.89947 C22.36596,27.43298 18.86596,29 15,29 C11.13404,29 7.63404,27.43298 5.100502,24.89947 C2.567006,22.36596 1,18.86596 1,15 C1,11.13404 2.567006,7.63404 5.100502,5.100502 C7.63404,2.567006 11.13404,1 15,1 Z M12.2380952,9 L11.3333333,9 C10.5969537,9 10,9.59695367 10,10.3333333 L10,10.3333333 L10,19.6666667 C10,20.4030463 10.5969537,21 11.3333333,21 L11.3333333,21 L12.2380952,21 C12.9744749,21 13.5714286,20.4030463 13.5714286,19.6666667 L13.5714286,19.6666667 L13.5714286,10.3333333 C13.5714286,9.59695367 12.9744749,9 12.2380952,9 L12.2380952,9 Z M18.6666667,9 L17.7619048,9 C17.0255251,9 16.4285714,9.59695367 16.4285714,10.3333333 L16.4285714,10.3333333 L16.4285714,19.6666667 C16.4285714,20.4030463 17.0255251,21 17.7619048,21 L17.7619048,21 L18.6666667,21 C19.4030463,21 20,20.4030463 20,19.6666667 L20,19.6666667 L20,10.3333333 C20,9.59695367 19.4030463,9 18.6666667,9 L18.6666667,9 Z" id="形状结合"></path>
        </g>
    </g>
</svg>