<?xml version="1.0" encoding="UTF-8"?>
<svg width="28px" height="28px" viewBox="0 0 28 28" version="1.1" xmlns="http://www.w3.org/2000/svg" xmlns:xlink="http://www.w3.org/1999/xlink">
    <title>icon_recipe_off</title>
    <g id="模式" stroke="none" stroke-width="1" fill="none" fill-rule="evenodd">
        <g id="图标" transform="translate(-187.000000, -198.000000)" fill="#8B8F93">
            <g id="icon_recipe_off" transform="translate(187.000000, 198.000000)">
                <path d="M20.2678137,8.9327 L13.4028241,8.9327 C12.6306483,8.9327 12.0045881,8.30585 12.0045881,7.5327 C12.0045881,6.75955 12.6306483,6.1327 13.4028241,6.1327 L20.2678137,6.1327 C21.0399896,6.1327 21.6660498,6.75955 21.6660498,7.5327 C21.6660498,8.30585 21.0399896,8.9327 20.2678137,8.9327 L20.2678137,8.9327 Z M20.2678137,15.4 L13.4028241,15.4 C12.6306483,15.4 12.0045881,14.77315 12.0045881,14 C12.0045881,13.22685 12.6306483,12.6 13.4028241,12.6 L20.2678137,12.6 C21.0399896,12.6 21.6660498,13.22685 21.6660498,14 C21.6660498,14.77315 21.0399896,15.4 20.2678137,15.4 L20.2678137,15.4 Z M15.7221482,21.86695 L13.4028241,21.86695 C12.6306483,21.86695 12.0045881,21.2401 12.0045881,20.46695 C12.0045881,19.6938 12.6306483,19.06695 13.4028241,19.06695 L15.7221482,19.06695 C16.4943241,19.06695 17.1203843,19.6938 17.1203843,20.46695 C17.1203843,21.2401 16.4943241,21.86695 15.7221482,21.86695 L15.7221482,21.86695 Z M9.48042239,23.04645 C9.48042239,23.8196 8.85436219,24.44645 8.08218632,24.44645 C7.31001045,24.44645 6.68395025,23.8196 6.68395025,23.04645 L6.68395025,4.9532 C6.68395025,4.18005 7.31001045,3.5532 8.08218632,3.5532 C8.85436219,3.5532 9.48042239,4.18005 9.48042239,4.9532 L9.48042239,23.04645 Z M24.1517639,0 L4.19823607,0 C3.4260602,0 2.8,0.62685 2.8,1.4 L2.8,26.6 C2.8,27.37315 3.4260602,28 4.19823607,28 L24.1517639,28 C24.9239398,28 25.55,27.37315 25.55,26.6 L25.55,1.4 C25.55,0.62685 24.9239398,0 24.1517639,0 L24.1517639,0 Z" id="Fill-21"></path>
            </g>
        </g>
    </g>
</svg>