<svg xmlns="http://www.w3.org/2000/svg" viewBox="0 0 30 30" class="design-iconfont">
  <path d="M15,1 C18.86596,1 22.36596,2.567006 24.89947,5.100502 C27.43298,7.63404 29,11.13404 29,15 C29,18.86596 27.43298,22.36596 24.89947,24.89947 C22.36596,27.43298 18.86596,29 15,29 C11.13404,29 7.63404,27.43298 5.100502,24.89947 C2.567006,22.36596 1,18.86596 1,15 C1,11.13404 2.567006,7.63404 5.100502,5.100502 C7.63404,2.567006 11.13404,1 15,1 Z M22.9899495,9.81005051 C22.4432155,9.2633165 21.5567845,9.2633165 21.0100505,9.81005051 L21.0100505,9.81005051 L13.5996706,17.2195765 L10.3899495,14.0100505 L10.2836219,13.9139449 C9.73373856,13.4654522 8.92261364,13.4974874 8.41005051,14.0100505 C7.8633165,14.5567845 7.8633165,15.4432155 8.41005051,15.9899495 L8.41005051,15.9899495 L12.6100505,20.1899495 L12.7163781,20.2860551 C13.2662614,20.7345478 14.0773864,20.7025126 14.5899495,20.1899495 L14.5899495,20.1899495 L22.9899495,11.7899495 L23.0860551,11.6836219 C23.5345478,11.1337386 23.5025126,10.3226136 22.9899495,9.81005051 Z" fill="#32D049" fill-rule="nonzero"/>
</svg>
