<?xml version="1.0" encoding="UTF-8"?>
<svg width="20px" height="20px" viewBox="0 0 20 20" version="1.1" xmlns="http://www.w3.org/2000/svg" xmlns:xlink="http://www.w3.org/1999/xlink">
    <title>切片</title>
    <defs>
        <linearGradient x1="0%" y1="0%" x2="0%" y2="100%" id="linearGradient-1">
            <stop stop-color="#2D3438" offset="0%"></stop>
            <stop stop-color="#171A1C" offset="84.375%"></stop>
        </linearGradient>
    </defs>
    <g id="菜谱2" stroke="none" stroke-width="1" fill="none" fill-rule="evenodd">
        <g id="步骤1/火力调整" transform="translate(-353.000000, -176.000000)">
            <rect fill="#F2F2F6" x="0" y="0" width="1024" height="600"></rect>
            <path d="M0,0 L1024,0 L1024,600 L0,600 L0,0 Z" id="bg" fill="url(#linearGradient-1)"></path>
            <path d="M40,70 L413,70 L413,70 L413,480 L40,480 C28.954305,480 20,471.045695 20,460 L20,90 C20,78.954305 28.954305,70 40,70 Z" id="矩形" fill="#3D454E"></path>
            <g id="首页/功能/激活" transform="translate(40.000000, 154.000000)">
                <rect id="矩形备份" fill="#333B43" x="0" y="0" width="353" height="64" rx="10"></rect>
                <text id="Features" font-family="Avenir-Book, Avenir" font-size="24" font-weight="normal" fill="#FFFFFF">
                    <tspan x="20" y="40">Fire</tspan>
                </text>
                <text id="data" font-family="Avenir-Black, Avenir" font-size="24" font-weight="700" fill="#FFFFFF">
                    <tspan x="286.792" y="40">3</tspan>
                </text>
                <g id="icon_more" transform="translate(313.000000, 22.000000)" fill="#FFFFFF" fill-rule="nonzero">
                    <path d="M5.43552817,20 L5.43552823,20 C5.05458482,20.0050007 4.68835404,19.8528103 4.4230197,19.5791188 L4.42301973,19.5791188 C3.86382683,19.0260941 3.85832624,18.1239535 4.41073484,17.5641355 C4.41480475,17.560011 4.41889977,17.5559114 4.42301965,17.551837 L11.9690692,9.99735254 L4.42301965,2.44286809 L4.42301968,2.44286812 C3.86382679,1.88984338 3.8583262,0.98770279 4.41073479,0.427884831 C4.41480471,0.423760319 4.41889972,0.419660726 4.4230196,0.415586287 L4.42301954,0.415586347 C4.98456051,-0.138528762 5.88649565,-0.138528762 6.44803662,0.415586227 L16,9.97822676 L6.44803662,19.5408673 L6.44803661,19.5408673 C6.18728974,19.8258477 5.82147582,19.9916853 5.43552807,20 L5.43552817,20 Z" id="路径"></path>
                </g>
            </g>
            <g id="首页/功能/激活" transform="translate(40.000000, 154.000000)">
                <rect id="矩形备份" fill="#333B43" x="0" y="0" width="353" height="64" rx="10"></rect>
                <g id="icon_more" transform="translate(313.000000, 22.000000)" fill="#FFFFFF" fill-rule="nonzero">
                    <path d="M5.43552817,20 L5.43552823,20 C5.05458482,20.0050007 4.68835404,19.8528103 4.4230197,19.5791188 L4.42301973,19.5791188 C3.86382683,19.0260941 3.85832624,18.1239535 4.41073484,17.5641355 C4.41480475,17.560011 4.41889977,17.5559114 4.42301965,17.551837 L11.9690692,9.99735254 L4.42301965,2.44286809 L4.42301968,2.44286812 C3.86382679,1.88984338 3.8583262,0.98770279 4.41073479,0.427884831 C4.41480471,0.423760319 4.41889972,0.419660726 4.4230196,0.415586287 L4.42301954,0.415586347 C4.98456051,-0.138528762 5.88649565,-0.138528762 6.44803662,0.415586227 L16,9.97822676 L6.44803662,19.5408673 L6.44803661,19.5408673 C6.18728974,19.8258477 5.82147582,19.9916853 5.43552807,20 L5.43552817,20 Z" id="路径"></path>
                </g>
            </g>
        </g>
    </g>
</svg>