<?xml version="1.0" encoding="UTF-8"?>
<svg width="28px" height="28px" viewBox="0 0 28 28" version="1.1" xmlns="http://www.w3.org/2000/svg" xmlns:xlink="http://www.w3.org/1999/xlink">
    <title>icon_setting_off</title>
    <g id="模式" stroke="none" stroke-width="1" fill="none" fill-rule="evenodd">
        <g id="图标" transform="translate(-283.000000, -198.000000)" fill="#8B8F93">
            <g id="icon_setting_off" transform="translate(283.000000, 198.000000)">
                <path d="M13.9982481,18.9039822 C11.2863668,18.9039822 9.08953263,16.7081171 9.08953263,14.0017483 C9.08953263,11.2953795 11.2863668,9.09951436 13.9982481,9.09951436 C16.7101295,9.09951436 18.9104674,11.2953795 18.9104674,14.0017483 C18.9104674,16.7081171 16.7101295,18.9039822 13.9982481,18.9039822 M27.4980917,12.131067 L22.3686417,3.27068128 C21.6994306,2.11330651 20.4626165,1.4 19.1276982,1.4 L8.87230182,1.4 C7.53387975,1.4 6.29706563,2.11330651 5.6278546,3.27068128 L0.501908278,12.131067 C-0.167302759,13.2884418 -0.167302759,14.7150548 0.501908278,15.868933 L5.6278546,24.7328153 C6.29706563,25.8901901 7.53387975,26.6 8.87230182,26.6 L19.1276982,26.6 C20.4626165,26.6 21.6994306,25.8901901 22.3686417,24.7328153 L27.4980917,15.868933 C28.1673028,14.7150548 28.1673028,13.2884418 27.4980917,12.131067" id="Fill-23"></path>
            </g>
        </g>
    </g>
</svg>