<svg xmlns="http://www.w3.org/2000/svg" viewBox="0 0 30 30" class="design-iconfont">
  <g fill="none" fill-rule="evenodd">
    <path d="M15,12.4 C17.9455187,12.4 20.3333333,10.0718807 20.3333333,7.2 C20.3333333,4.3281193 17.9455187,2 15,2 C12.0544813,2 9.66666667,4.3281193 9.66666667,7.2 C9.66666667,10.0718807 12.0544813,12.4 15,12.4 Z M27,28 C27,21.538285 21.6274,16.3 15,16.3 C8.3726,16.3 3,21.538285 3,28" stroke="#FFF" stroke-width="2" stroke-linecap="round" stroke-linejoin="round"/>
    <path fill="#EF5252" d="M15 12A8 8 0 1 0 15 28A8 8 0 1 0 15 12Z"/>
    <path d="M15,23 C15.5522847,23 16,23.4477153 16,24 C16,24.5522847 15.5522847,25 15,25 C14.4477153,25 14,24.5522847 14,24 C14,23.4477153 14.4477153,23 15,23 Z M15,15 C15.5522847,15 16,15.4477153 16,16 L16,21 C16,21.5522847 15.5522847,22 15,22 C14.4477153,22 14,21.5522847 14,21 L14,16 C14,15.4477153 14.4477153,15 15,15 Z" fill="#FFF"/>
  </g>
</svg>
