<svg xmlns="http://www.w3.org/2000/svg" viewBox="0 0 30 30" class="design-iconfont">
  <path d="M18,3 L27,3 M18,8 L27,8 M18,13 L27,13 M4,2 L11,2 C12.1045695,2 13,2.8954305 13,4 L13,11 C13,12.1045695 12.1045695,13 11,13 L4,13 C2.8954305,13 2,12.1045695 2,11 L2,4 C2,2.8954305 2.8954305,2 4,2 Z M4,17 L11,17 C12.1045695,17 13,17.8954305 13,19 L13,26 C13,27.1045695 12.1045695,28 11,28 L4,28 C2.8954305,28 2,27.1045695 2,26 L2,19 C2,17.8954305 2.8954305,17 4,17 Z M19,17 L26,17 C27.1045695,17 28,17.8954305 28,19 L28,26 C28,27.1045695 27.1045695,28 26,28 L19,28 C17.8954305,28 17,27.1045695 17,26 L17,19 C17,17.8954305 17.8954305,17 19,17 Z" stroke="#FFF" stroke-width="2" stroke-linecap="round" stroke-linejoin="round" fill="none" fill-rule="evenodd"/>
</svg>
