<svg xmlns="http://www.w3.org/2000/svg" viewBox="0 0 30 30" class="design-iconfont">
  <g fill="none" fill-rule="evenodd">
    <path d="M8.13793531,2.88888889 L13.8629274,2.88888889 C13.8629274,1.29403459 12.5809414,0 10.9999263,0 C9.41992137,0 8.13793531,1.29403459 8.13793531,2.88888889 Z" fill="#FFF" transform="translate(4 2)"/>
    <path d="M6.76547451,22.2988728 C7.06225882,24.3915337 8.8446902,26 10.9998275,26 C13.1549647,26 14.9382588,24.3915337 15.2341804,22.2988728 L6.76547451,22.2988728 Z" stroke="#FFF" stroke-width="1.74170692" stroke-linecap="round" stroke-linejoin="round" transform="translate(4 2)"/>
    <path d="M0,22.2988728 C0,22.2988728 3.66666667,19.2151807 3.66666667,10.5789269 C3.66666667,6.49114074 6.95027451,3.17667246 11,3.17667246 C15.0497255,3.17667246 18.3333333,6.49114074 18.3333333,10.5789269 C18.3333333,19.2151807 22,22.2988728 22,22.2988728 L0,22.2988728 Z" stroke="#FFF" stroke-width="1.74170692" stroke-linecap="round" stroke-linejoin="round" transform="translate(4 2)"/>
  </g>
</svg>
