<svg xmlns="http://www.w3.org/2000/svg" viewBox="0 0 30 30" class="design-iconfont">
  <path d="M15,0 C19.1421,0 22.8921,1.678935 25.606575,4.393395 C28.32105,7.1079 30,10.8579 30,15 C30,19.1421 28.32105,22.8921 25.606575,25.606575 C22.8921,28.32105 19.1421,30 15,30 C10.8579,30 7.1079,28.32105 4.393395,25.606575 C1.678935,22.8921 0,19.1421 0,15 C0,10.8579 1.678935,7.1079 4.393395,4.393395 C7.1079,1.678935 10.8579,0 15,0 Z M22.9899495,9.81005051 C22.4432155,9.2633165 21.5567845,9.2633165 21.0100505,9.81005051 L21.0100505,9.81005051 L13.6,17.221 L10.3899495,14.0100505 L10.2836219,13.9139449 C9.73373856,13.4654522 8.92261364,13.4974874 8.41005051,14.0100505 C7.8633165,14.5567845 7.8633165,15.4432155 8.41005051,15.9899495 L8.41005051,15.9899495 L12.6100505,20.1899495 L12.7163781,20.2860551 C13.2662614,20.7345478 14.0773864,20.7025126 14.5899495,20.1899495 L14.5899495,20.1899495 L22.9899495,11.7899495 L23.0860551,11.6836219 C23.5345478,11.1337386 23.5025126,10.3226136 22.9899495,9.81005051 Z" fill="#FFF" fill-rule="nonzero"/>
</svg>
