<svg xmlns="http://www.w3.org/2000/svg" viewBox="0 0 30 30" class="design-iconfont">
  <path d="M15,0 C19.1421,0 22.8921,1.678935 25.606575,4.393395 C28.32105,7.1079 30,10.8579 30,15 C30,19.1421 28.32105,22.8921 25.606575,25.606575 C22.8921,28.32105 19.1421,30 15,30 C10.8579,30 7.1079,28.32105 4.393395,25.606575 C1.678935,22.8921 0,19.1421 0,15 C0,10.8579 1.678935,7.1079 4.393395,4.393395 C7.1079,1.678935 10.8579,0 15,0 Z M11,7 L10,7 C8.8954305,7 8,7.8954305 8,9 L8,9 L8,21 C8,22.1045695 8.8954305,23 10,23 L10,23 L11,23 C12.1045695,23 13,22.1045695 13,21 L13,21 L13,9 C13,7.8954305 12.1045695,7 11,7 L11,7 Z M20,7 L19,7 C17.8954305,7 17,7.8954305 17,9 L17,9 L17,21 C17,22.1045695 17.8954305,23 19,23 L19,23 L20,23 C21.1045695,23 22,22.1045695 22,21 L22,21 L22,9 C22,7.8954305 21.1045695,7 20,7 L20,7 Z" fill="#FFF" fill-rule="nonzero"/>
</svg>
