<?xml version="1.0" encoding="UTF-8"?>
<svg xmlns="http://www.w3.org/2000/svg" xmlns:xlink="http://www.w3.org/1999/xlink" width="24px" height="24px" viewBox="0 0 24 24" version="1.1">
  <title>图标备份 4</title>
  <g id="图标" stroke="none" stroke-width="1" fill="none" fill-rule="evenodd">
    <g id="icon" transform="translate(-602.000000, -160.000000)">
      <g id="编组" transform="translate(602.000007, 160.000000)">
        <rect id="矩形" stroke="#979797" fill="#D8D8D8" opacity="0" x="0.5" y="0.5" width="23" height="23"></rect>
        <path d="M12,5 C16.59,5 20.5,7.91370558 22,11.9949239 C20.5,16.0862944 16.59,19 12,19 C7.409,19 3.5,16.0862944 2,11.9949239 C3.5,7.91370558 7.409,5 12,5 Z M12,7.5786802 C9.6,7.5786802 7.649,9.55837563 7.649,11.9949239 C7.649,14.4416244 9.6,16.4213198 12,16.4213198 C14.409,16.4213198 16.359,14.4416244 16.359,11.9949239 C16.359,9.55837563 14.409,7.5786802 12,7.5786802 Z M11.9997,9.75137056 C13.2297,9.75137056 14.2187,10.7564467 14.2187,11.9950254 C14.2187,13.2437563 13.2297,14.2488325 11.9997,14.2488325 C10.7797,14.2488325 9.7887,13.2437563 9.7887,11.9950254 C9.7887,10.7564467 10.7797,9.75137056 11.9997,9.75137056 Z" id="形状结合" fill="#FFFFFF"></path>
      </g>
    </g>
  </g>
</svg>
