<?xml version="1.0" encoding="UTF-8"?>
<svg xmlns="http://www.w3.org/2000/svg" xmlns:xlink="http://www.w3.org/1999/xlink" width="24px" height="24px" viewBox="0 0 24 24" version="1.1">
  <title>图标</title>
  <g id="图标" stroke="none" stroke-width="1" fill="none" fill-rule="evenodd">
    <g id="icon" transform="translate(-558.000000, -160.000000)">
      <g id="编组" transform="translate(558.000007, 160.000000)">
        <rect id="矩形" stroke="#979797" fill="#D8D8D8" opacity="0" x="0.5" y="0.5" width="23" height="23"></rect>
        <path d="M5.4775,4.28506767 L19.9365,18.3406291 C20.3275,18.7207194 20.3275,19.3350851 19.9365,19.7151754 C19.7415,19.9047344 19.4855,20 19.2295,20 C18.9735,20 18.7175,19.9047344 18.5225,19.7151754 L4.0635,5.65961389 C3.6725,5.27952367 3.6725,4.66515789 4.0635,4.28506767 C4.4545,3.90497744 5.0865,3.90497744 5.4775,4.28506767 Z M4.94,7.88474566 L7.86,10.7232711 C7.72,11.1218312 7.65,11.5495542 7.65,11.9967192 C7.65,14.3394748 9.601,16.2350654 12,16.2350654 C12.46,16.2350654 12.9,16.1670185 13.32,16.0309249 L13.32,16.0309249 L15.49,18.140377 C14.4,18.5097741 13.23,18.7041937 12,18.7041937 C7.41,18.7041937 3.5,15.9142731 2,11.9967192 C2.62,10.3927579 3.63,8.98321612 4.94,7.88474566 L4.94,7.88474566 Z M12,5.29896563 C16.591,5.29896563 20.5,8.08888619 22,11.9967192 C21.38,13.6006805 20.37,15.0199432 19.06,16.1184137 L19.06,16.1184137 L16.15,13.2896092 C16.29,12.8813281 16.36,12.4536051 16.36,11.9967192 C16.36,9.66368455 14.41,7.76809393 12,7.76809393 C11.54,7.76809393 11.091,7.83614077 10.681,7.97223446 L10.681,7.97223446 L8.511,5.86278233 C9.601,5.49338518 10.771,5.29896563 12,5.29896563 Z M9.9199,12.7258897 L11.2609,14.0285007 C10.6399,13.8146392 10.1399,13.3383113 9.9199,12.7258897 Z M12.7398,9.97485305 C13.3698,10.1887146 13.8798,10.6747634 14.0908,11.287185 L12.7398,9.97485305 Z" id="形状结合" fill="#FFFFFF"></path>
      </g>
    </g>
  </g>
</svg>
